G04 EAGLE Gerber RS-274X export*
G75*
%MOMM*%
%FSLAX34Y34*%
%LPD*%
%INBottom Copper*%
%IPPOS*%
%AMOC8*
5,1,8,0,0,1.08239X$1,22.5*%
G01*
%ADD10R,2.000000X4.100000*%
%ADD11C,1.016000*%
%ADD12R,1.288000X1.288000*%
%ADD13C,1.288000*%
%ADD14C,3.220000*%
%ADD15R,1.676400X1.676400*%
%ADD16C,1.676400*%
%ADD17C,4.016000*%
%ADD18C,4.445000*%
%ADD19C,1.400000*%
%ADD20C,1.960000*%
%ADD21R,1.524000X1.524000*%
%ADD22P,1.649562X8X292.500000*%
%ADD23C,0.609600*%
%ADD24C,0.254000*%


D10*
X952500Y462600D03*
X952500Y375600D03*
D11*
X1168400Y50800D03*
X101600Y50800D03*
X1168400Y965200D03*
D12*
X1092200Y482600D03*
D13*
X1092200Y457600D03*
X1092200Y437600D03*
X1092200Y412600D03*
D14*
X1119300Y513300D03*
X1119300Y381900D03*
D15*
X863600Y901700D03*
D16*
X863600Y876300D03*
X863600Y850900D03*
X863600Y825500D03*
X863600Y800100D03*
X863600Y774700D03*
X863600Y749300D03*
X863600Y723900D03*
X863600Y698500D03*
X863600Y673100D03*
X863600Y647700D03*
X863600Y622300D03*
X863600Y596900D03*
X863600Y571500D03*
X863600Y546100D03*
X863600Y520700D03*
X863600Y495300D03*
X863600Y469900D03*
X863600Y444500D03*
X863600Y419100D03*
D15*
X101600Y901700D03*
D16*
X101600Y876300D03*
X101600Y850900D03*
X101600Y825500D03*
X101600Y800100D03*
X101600Y774700D03*
X101600Y749300D03*
X101600Y723900D03*
X101600Y698500D03*
X101600Y673100D03*
X101600Y647700D03*
X101600Y622300D03*
X101600Y596900D03*
X101600Y571500D03*
X101600Y546100D03*
X101600Y520700D03*
X101600Y495300D03*
X101600Y469900D03*
X101600Y444500D03*
X101600Y419100D03*
D17*
X101600Y946150D03*
X101600Y374650D03*
X863600Y946150D03*
X863600Y374650D03*
D18*
X1219200Y965200D03*
X1219200Y50800D03*
X50800Y50800D03*
X50800Y965200D03*
D19*
X1067200Y584200D03*
X1092200Y584200D03*
X1117200Y584200D03*
X1067200Y228600D03*
X1092200Y228600D03*
X1117200Y228600D03*
D20*
X1053100Y888600D03*
X1053100Y838600D03*
X928100Y838600D03*
X928100Y888600D03*
X1230900Y888600D03*
X1230900Y838600D03*
X1105900Y838600D03*
X1105900Y888600D03*
D21*
X536200Y906100D03*
D22*
X510800Y906100D03*
X536200Y880700D03*
X510800Y880700D03*
X536200Y855300D03*
X510800Y855300D03*
X536200Y829900D03*
X510800Y829900D03*
X536200Y804500D03*
X510800Y804500D03*
X536200Y779100D03*
X510800Y779100D03*
X536200Y753700D03*
X510800Y753700D03*
X536200Y728300D03*
X510800Y728300D03*
X536200Y702900D03*
X510800Y702900D03*
X536200Y677500D03*
X510800Y677500D03*
X536200Y652100D03*
X510800Y652100D03*
X536200Y626700D03*
X510800Y626700D03*
X536200Y601300D03*
X510800Y601300D03*
X536200Y575900D03*
X510800Y575900D03*
X536200Y550500D03*
X510800Y550500D03*
X536200Y525100D03*
X510800Y525100D03*
X536200Y499700D03*
X510800Y499700D03*
X536200Y474300D03*
X510800Y474300D03*
D21*
X282200Y906100D03*
D22*
X256800Y906100D03*
X282200Y880700D03*
X256800Y880700D03*
X282200Y855300D03*
X256800Y855300D03*
X282200Y829900D03*
X256800Y829900D03*
X282200Y804500D03*
X256800Y804500D03*
X282200Y779100D03*
X256800Y779100D03*
X282200Y753700D03*
X256800Y753700D03*
X282200Y728300D03*
X256800Y728300D03*
X282200Y702900D03*
X256800Y702900D03*
X282200Y677500D03*
X256800Y677500D03*
X282200Y652100D03*
X256800Y652100D03*
X282200Y626700D03*
X256800Y626700D03*
X282200Y601300D03*
X256800Y601300D03*
X282200Y575900D03*
X256800Y575900D03*
X282200Y550500D03*
X256800Y550500D03*
X282200Y525100D03*
X256800Y525100D03*
X282200Y499700D03*
X256800Y499700D03*
X282200Y474300D03*
X256800Y474300D03*
D23*
X650240Y431800D03*
X650240Y431800D03*
X650240Y431800D03*
D24*
X650240Y777240D01*
X652780Y779780D01*
D23*
X652780Y779780D03*
X566420Y635000D03*
X566420Y635000D03*
X566420Y635000D03*
D24*
X566420Y701040D01*
D23*
X566420Y701040D03*
D24*
X1117200Y584200D02*
X1168400Y533000D01*
X1168400Y241300D01*
X1155700Y228600D01*
X1117200Y228600D01*
D23*
X604520Y215900D03*
X604520Y215900D03*
X604520Y215900D03*
D24*
X604520Y675640D01*
D23*
X604520Y675640D03*
X579120Y617220D03*
X579120Y617220D03*
X579120Y617220D03*
D24*
X579120Y650240D01*
X581660Y652780D01*
D23*
X581660Y652780D03*
X558800Y584200D03*
X558800Y584200D03*
X558800Y584200D03*
X591820Y584200D03*
X591820Y584200D03*
X591820Y584200D03*
D24*
X591820Y690880D01*
D23*
X591820Y690880D03*
D24*
X1067200Y584200D02*
X1076557Y584200D01*
X1158510Y502247D01*
X1158510Y291844D02*
X1150620Y283954D01*
X1150620Y243840D01*
X1158510Y291844D02*
X1158510Y502247D01*
X1150620Y243840D02*
X1146190Y239410D01*
X1078010Y239410D01*
X1067200Y228600D01*
D23*
X1064260Y853440D03*
X916559Y853059D03*
X119380Y304800D03*
X195580Y304800D03*
X271780Y304800D03*
D24*
X952500Y375600D02*
X977580Y375600D01*
X977900Y375920D01*
D23*
X977900Y375920D03*
X1074420Y411480D03*
X1221740Y304800D03*
X607060Y835660D03*
X607060Y835660D03*
X607060Y835660D03*
D24*
X607060Y682799D01*
X611378Y678481D01*
X611378Y666242D02*
X614680Y662940D01*
X611378Y666242D02*
X611378Y678481D01*
D23*
X614680Y662940D03*
D24*
X1072200Y462600D02*
X1092200Y482600D01*
X1072200Y462600D02*
X952500Y462600D01*
X929320Y462600D01*
X916940Y474980D01*
D23*
X916940Y474980D03*
D24*
X617220Y485140D02*
X617220Y624840D01*
D23*
X617220Y624840D03*
X358140Y627380D03*
X358140Y627380D03*
X358140Y627380D03*
D24*
X358140Y754380D01*
D23*
X358140Y754380D03*
X627380Y482600D03*
X627380Y482600D03*
X627380Y482600D03*
D24*
X619760Y482600D01*
X617220Y485140D01*
D23*
X602488Y864108D03*
X601980Y863600D03*
X601980Y863600D03*
D24*
X601980Y840279D01*
X600202Y838501D01*
X600202Y717042D02*
X599440Y716280D01*
X600202Y717042D02*
X600202Y838501D01*
D23*
X599440Y716280D03*
X635000Y454660D03*
X635000Y454660D03*
X635000Y454660D03*
D24*
X635000Y802640D01*
X637540Y805180D01*
X636270Y806450D01*
D23*
X636270Y806450D03*
M02*
