G04 EAGLE Gerber RS-274X export*
G75*
%MOMM*%
%FSLAX34Y34*%
%LPD*%
%INCopper Layer 2*%
%IPPOS*%
%AMOC8*
5,1,8,0,0,1.08239X$1,22.5*%
G01*
%ADD10C,1.288000*%
%ADD11C,3.220000*%
%ADD12C,1.400000*%
%ADD13C,4.016000*%
%ADD14C,4.191000*%
%ADD15C,1.960000*%
%ADD16C,1.244600*%
%ADD17C,0.609600*%
%ADD18C,0.254000*%

G36*
X1266308Y2556D02*
X1266308Y2556D01*
X1266427Y2563D01*
X1266465Y2576D01*
X1266506Y2581D01*
X1266616Y2624D01*
X1266729Y2661D01*
X1266764Y2683D01*
X1266801Y2698D01*
X1266897Y2767D01*
X1266998Y2831D01*
X1267026Y2861D01*
X1267059Y2884D01*
X1267135Y2976D01*
X1267216Y3063D01*
X1267236Y3098D01*
X1267261Y3129D01*
X1267312Y3237D01*
X1267370Y3341D01*
X1267380Y3381D01*
X1267397Y3417D01*
X1267419Y3534D01*
X1267449Y3649D01*
X1267453Y3709D01*
X1267457Y3729D01*
X1267455Y3750D01*
X1267459Y3810D01*
X1267459Y1012190D01*
X1267444Y1012308D01*
X1267437Y1012427D01*
X1267424Y1012465D01*
X1267419Y1012506D01*
X1267376Y1012616D01*
X1267339Y1012729D01*
X1267317Y1012764D01*
X1267302Y1012801D01*
X1267233Y1012897D01*
X1267169Y1012998D01*
X1267139Y1013026D01*
X1267116Y1013059D01*
X1267024Y1013135D01*
X1266937Y1013216D01*
X1266902Y1013236D01*
X1266871Y1013261D01*
X1266763Y1013312D01*
X1266659Y1013370D01*
X1266619Y1013380D01*
X1266583Y1013397D01*
X1266466Y1013419D01*
X1266351Y1013449D01*
X1266291Y1013453D01*
X1266271Y1013457D01*
X1266250Y1013455D01*
X1266190Y1013459D01*
X3810Y1013459D01*
X3692Y1013444D01*
X3573Y1013437D01*
X3535Y1013424D01*
X3494Y1013419D01*
X3384Y1013376D01*
X3271Y1013339D01*
X3236Y1013317D01*
X3199Y1013302D01*
X3103Y1013233D01*
X3002Y1013169D01*
X2974Y1013139D01*
X2941Y1013116D01*
X2865Y1013024D01*
X2784Y1012937D01*
X2764Y1012902D01*
X2739Y1012871D01*
X2688Y1012763D01*
X2630Y1012659D01*
X2620Y1012619D01*
X2603Y1012583D01*
X2581Y1012466D01*
X2551Y1012351D01*
X2547Y1012291D01*
X2543Y1012271D01*
X2545Y1012250D01*
X2541Y1012190D01*
X2541Y3810D01*
X2556Y3692D01*
X2563Y3573D01*
X2576Y3535D01*
X2581Y3494D01*
X2624Y3384D01*
X2661Y3271D01*
X2683Y3236D01*
X2698Y3199D01*
X2767Y3103D01*
X2831Y3002D01*
X2861Y2974D01*
X2884Y2941D01*
X2976Y2865D01*
X3063Y2784D01*
X3098Y2764D01*
X3129Y2739D01*
X3237Y2688D01*
X3341Y2630D01*
X3381Y2620D01*
X3417Y2603D01*
X3534Y2581D01*
X3649Y2551D01*
X3709Y2547D01*
X3729Y2543D01*
X3750Y2545D01*
X3810Y2541D01*
X1266190Y2541D01*
X1266308Y2556D01*
G37*
%LPC*%
G36*
X1214526Y941704D02*
X1214526Y941704D01*
X1205891Y945281D01*
X1199281Y951891D01*
X1195704Y960526D01*
X1195704Y969874D01*
X1199281Y978509D01*
X1205891Y985119D01*
X1214526Y988696D01*
X1223874Y988696D01*
X1232509Y985119D01*
X1239119Y978509D01*
X1242696Y969874D01*
X1242696Y960526D01*
X1239119Y951891D01*
X1232509Y945281D01*
X1223874Y941704D01*
X1214526Y941704D01*
G37*
%LPD*%
%LPC*%
G36*
X46126Y941704D02*
X46126Y941704D01*
X37491Y945281D01*
X30881Y951891D01*
X27304Y960526D01*
X27304Y969874D01*
X30881Y978509D01*
X37491Y985119D01*
X46126Y988696D01*
X55474Y988696D01*
X64109Y985119D01*
X70719Y978509D01*
X74296Y969874D01*
X74296Y960526D01*
X70719Y951891D01*
X64109Y945281D01*
X55474Y941704D01*
X46126Y941704D01*
G37*
%LPD*%
%LPC*%
G36*
X46126Y27304D02*
X46126Y27304D01*
X37491Y30881D01*
X30881Y37491D01*
X27304Y46126D01*
X27304Y55474D01*
X30881Y64109D01*
X37491Y70719D01*
X46126Y74296D01*
X55474Y74296D01*
X64109Y70719D01*
X70719Y64109D01*
X74296Y55474D01*
X74296Y46126D01*
X70719Y37491D01*
X64109Y30881D01*
X55474Y27304D01*
X46126Y27304D01*
G37*
%LPD*%
%LPC*%
G36*
X1214526Y27304D02*
X1214526Y27304D01*
X1205891Y30881D01*
X1199281Y37491D01*
X1195704Y46126D01*
X1195704Y55474D01*
X1199281Y64109D01*
X1205891Y70719D01*
X1214526Y74296D01*
X1223874Y74296D01*
X1232509Y70719D01*
X1239119Y64109D01*
X1242696Y55474D01*
X1242696Y46126D01*
X1239119Y37491D01*
X1232509Y30881D01*
X1223874Y27304D01*
X1214526Y27304D01*
G37*
%LPD*%
%LPC*%
G36*
X97100Y923529D02*
X97100Y923529D01*
X88786Y926973D01*
X82423Y933336D01*
X78979Y941650D01*
X78979Y950650D01*
X82423Y958964D01*
X88786Y965327D01*
X97100Y968771D01*
X106100Y968771D01*
X114414Y965327D01*
X120777Y958964D01*
X124221Y950650D01*
X124221Y941650D01*
X120777Y933336D01*
X114414Y926973D01*
X106100Y923529D01*
X97100Y923529D01*
G37*
%LPD*%
%LPC*%
G36*
X859100Y923529D02*
X859100Y923529D01*
X850786Y926973D01*
X844423Y933336D01*
X840979Y941650D01*
X840979Y950650D01*
X844423Y958964D01*
X850786Y965327D01*
X859100Y968771D01*
X868100Y968771D01*
X876414Y965327D01*
X882777Y958964D01*
X886221Y950650D01*
X886221Y941650D01*
X882777Y933336D01*
X876414Y926973D01*
X868100Y923529D01*
X859100Y923529D01*
G37*
%LPD*%
%LPC*%
G36*
X859100Y352029D02*
X859100Y352029D01*
X850786Y355473D01*
X844423Y361836D01*
X840979Y370150D01*
X840979Y379150D01*
X844423Y387464D01*
X850786Y393827D01*
X859100Y397271D01*
X868100Y397271D01*
X876414Y393827D01*
X882777Y387464D01*
X886221Y379150D01*
X886221Y370150D01*
X882777Y361836D01*
X876414Y355473D01*
X868100Y352029D01*
X859100Y352029D01*
G37*
%LPD*%
%LPC*%
G36*
X97100Y352029D02*
X97100Y352029D01*
X88786Y355473D01*
X82423Y361836D01*
X78979Y370150D01*
X78979Y379150D01*
X82423Y387464D01*
X88786Y393827D01*
X97100Y397271D01*
X106100Y397271D01*
X114414Y393827D01*
X120777Y387464D01*
X124221Y379150D01*
X124221Y370150D01*
X120777Y361836D01*
X114414Y355473D01*
X106100Y352029D01*
X97100Y352029D01*
G37*
%LPD*%
%LPC*%
G36*
X1115592Y363259D02*
X1115592Y363259D01*
X1108741Y366097D01*
X1103497Y371341D01*
X1100659Y378192D01*
X1100659Y385608D01*
X1103497Y392459D01*
X1108741Y397703D01*
X1115592Y400541D01*
X1123008Y400541D01*
X1129859Y397703D01*
X1135103Y392459D01*
X1137941Y385608D01*
X1137941Y378192D01*
X1135103Y371341D01*
X1129859Y366097D01*
X1123008Y363259D01*
X1115592Y363259D01*
G37*
%LPD*%
%LPC*%
G36*
X1115592Y494659D02*
X1115592Y494659D01*
X1108741Y497497D01*
X1103497Y502741D01*
X1100659Y509592D01*
X1100659Y517008D01*
X1103497Y523859D01*
X1108741Y529103D01*
X1115592Y531941D01*
X1123008Y531941D01*
X1129859Y529103D01*
X1135103Y523859D01*
X1137941Y517008D01*
X1137941Y509592D01*
X1135103Y502741D01*
X1129859Y497497D01*
X1123008Y494659D01*
X1115592Y494659D01*
G37*
%LPD*%
%LPC*%
G36*
X1139208Y283559D02*
X1139208Y283559D01*
X1133680Y285849D01*
X1129449Y290080D01*
X1127159Y295608D01*
X1127159Y301592D01*
X1129449Y307120D01*
X1133680Y311351D01*
X1139208Y313641D01*
X1145192Y313641D01*
X1150720Y311351D01*
X1154951Y307120D01*
X1157241Y301592D01*
X1157241Y295608D01*
X1154951Y290080D01*
X1150720Y285849D01*
X1145192Y283559D01*
X1139208Y283559D01*
G37*
%LPD*%
%LPC*%
G36*
X1039208Y283559D02*
X1039208Y283559D01*
X1033680Y285849D01*
X1029449Y290080D01*
X1027159Y295608D01*
X1027159Y301592D01*
X1029449Y307120D01*
X1033680Y311351D01*
X1039208Y313641D01*
X1045192Y313641D01*
X1050720Y311351D01*
X1054951Y307120D01*
X1057241Y301592D01*
X1057241Y295608D01*
X1054951Y290080D01*
X1050720Y285849D01*
X1045192Y283559D01*
X1039208Y283559D01*
G37*
%LPD*%
%LPC*%
G36*
X1139208Y639159D02*
X1139208Y639159D01*
X1133680Y641449D01*
X1129449Y645680D01*
X1127159Y651208D01*
X1127159Y657192D01*
X1129449Y662720D01*
X1133680Y666951D01*
X1139208Y669241D01*
X1145192Y669241D01*
X1150720Y666951D01*
X1154951Y662720D01*
X1157241Y657192D01*
X1157241Y651208D01*
X1154951Y645680D01*
X1150720Y641449D01*
X1145192Y639159D01*
X1139208Y639159D01*
G37*
%LPD*%
%LPC*%
G36*
X1039208Y639159D02*
X1039208Y639159D01*
X1033680Y641449D01*
X1029449Y645680D01*
X1027159Y651208D01*
X1027159Y657192D01*
X1029449Y662720D01*
X1033680Y666951D01*
X1039208Y669241D01*
X1045192Y669241D01*
X1050720Y666951D01*
X1054951Y662720D01*
X1057241Y657192D01*
X1057241Y651208D01*
X1054951Y645680D01*
X1050720Y641449D01*
X1045192Y639159D01*
X1039208Y639159D01*
G37*
%LPD*%
%LPC*%
G36*
X1090414Y428619D02*
X1090414Y428619D01*
X1087113Y429986D01*
X1084586Y432513D01*
X1083219Y435814D01*
X1083219Y439386D01*
X1084586Y442687D01*
X1087113Y445214D01*
X1090043Y446427D01*
X1090164Y446496D01*
X1090287Y446561D01*
X1090302Y446575D01*
X1090320Y446585D01*
X1090420Y446682D01*
X1090522Y446775D01*
X1090533Y446792D01*
X1090548Y446806D01*
X1090621Y446925D01*
X1090697Y447041D01*
X1090704Y447060D01*
X1090714Y447077D01*
X1090755Y447210D01*
X1090800Y447342D01*
X1090802Y447362D01*
X1090808Y447381D01*
X1090815Y447520D01*
X1090826Y447659D01*
X1090822Y447679D01*
X1090823Y447699D01*
X1090795Y447835D01*
X1090771Y447972D01*
X1090763Y447991D01*
X1090759Y448010D01*
X1090697Y448136D01*
X1090641Y448262D01*
X1090628Y448278D01*
X1090619Y448296D01*
X1090529Y448402D01*
X1090442Y448510D01*
X1090426Y448523D01*
X1090413Y448538D01*
X1090299Y448618D01*
X1090188Y448702D01*
X1090163Y448714D01*
X1090153Y448721D01*
X1090133Y448728D01*
X1090043Y448773D01*
X1087113Y449986D01*
X1084586Y452513D01*
X1083219Y455814D01*
X1083219Y459386D01*
X1084586Y462687D01*
X1087113Y465214D01*
X1090414Y466581D01*
X1093986Y466581D01*
X1097287Y465214D01*
X1099814Y462687D01*
X1101181Y459386D01*
X1101181Y455814D01*
X1099814Y452513D01*
X1097287Y449986D01*
X1094357Y448773D01*
X1094236Y448704D01*
X1094113Y448639D01*
X1094098Y448625D01*
X1094080Y448615D01*
X1093980Y448518D01*
X1093878Y448425D01*
X1093866Y448408D01*
X1093852Y448394D01*
X1093779Y448276D01*
X1093703Y448159D01*
X1093696Y448140D01*
X1093686Y448123D01*
X1093645Y447990D01*
X1093600Y447858D01*
X1093598Y447838D01*
X1093592Y447819D01*
X1093585Y447680D01*
X1093574Y447541D01*
X1093578Y447521D01*
X1093577Y447501D01*
X1093605Y447365D01*
X1093629Y447228D01*
X1093637Y447209D01*
X1093641Y447190D01*
X1093702Y447065D01*
X1093759Y446938D01*
X1093772Y446922D01*
X1093781Y446904D01*
X1093871Y446798D01*
X1093958Y446690D01*
X1093974Y446677D01*
X1093987Y446662D01*
X1094101Y446582D01*
X1094212Y446498D01*
X1094237Y446486D01*
X1094247Y446479D01*
X1094267Y446472D01*
X1094357Y446427D01*
X1097287Y445214D01*
X1099814Y442687D01*
X1101181Y439386D01*
X1101181Y435814D01*
X1099814Y432513D01*
X1097287Y429986D01*
X1093986Y428619D01*
X1090414Y428619D01*
G37*
%LPD*%
%LPC*%
G36*
X1050645Y876259D02*
X1050645Y876259D01*
X1046110Y878138D01*
X1042638Y881610D01*
X1040759Y886145D01*
X1040759Y891055D01*
X1042638Y895590D01*
X1046110Y899062D01*
X1050645Y900941D01*
X1055555Y900941D01*
X1060090Y899062D01*
X1063562Y895590D01*
X1065441Y891055D01*
X1065441Y886145D01*
X1063562Y881610D01*
X1060090Y878138D01*
X1055555Y876259D01*
X1050645Y876259D01*
G37*
%LPD*%
%LPC*%
G36*
X1103445Y876259D02*
X1103445Y876259D01*
X1098910Y878138D01*
X1095438Y881610D01*
X1093559Y886145D01*
X1093559Y891055D01*
X1095438Y895590D01*
X1098910Y899062D01*
X1103445Y900941D01*
X1108355Y900941D01*
X1112890Y899062D01*
X1116362Y895590D01*
X1118241Y891055D01*
X1118241Y886145D01*
X1116362Y881610D01*
X1112890Y878138D01*
X1108355Y876259D01*
X1103445Y876259D01*
G37*
%LPD*%
%LPC*%
G36*
X925645Y876259D02*
X925645Y876259D01*
X921110Y878138D01*
X917638Y881610D01*
X915759Y886145D01*
X915759Y891055D01*
X917638Y895590D01*
X921110Y899062D01*
X925645Y900941D01*
X930555Y900941D01*
X935090Y899062D01*
X938562Y895590D01*
X940441Y891055D01*
X940441Y886145D01*
X938562Y881610D01*
X935090Y878138D01*
X930555Y876259D01*
X925645Y876259D01*
G37*
%LPD*%
%LPC*%
G36*
X1228445Y876259D02*
X1228445Y876259D01*
X1223910Y878138D01*
X1220438Y881610D01*
X1218559Y886145D01*
X1218559Y891055D01*
X1220438Y895590D01*
X1223910Y899062D01*
X1228445Y900941D01*
X1233355Y900941D01*
X1237890Y899062D01*
X1241362Y895590D01*
X1243241Y891055D01*
X1243241Y886145D01*
X1241362Y881610D01*
X1237890Y878138D01*
X1233355Y876259D01*
X1228445Y876259D01*
G37*
%LPD*%
%LPC*%
G36*
X99702Y688959D02*
X99702Y688959D01*
X96196Y690412D01*
X93512Y693096D01*
X92059Y696602D01*
X92059Y700398D01*
X93512Y703904D01*
X96196Y706588D01*
X99702Y708041D01*
X103498Y708041D01*
X107004Y706588D01*
X109688Y703904D01*
X111141Y700398D01*
X111141Y696602D01*
X109688Y693096D01*
X107004Y690412D01*
X103498Y688959D01*
X99702Y688959D01*
G37*
%LPD*%
%LPC*%
G36*
X1065302Y219059D02*
X1065302Y219059D01*
X1061796Y220512D01*
X1059112Y223196D01*
X1057659Y226702D01*
X1057659Y230498D01*
X1059112Y234004D01*
X1061796Y236688D01*
X1065302Y238141D01*
X1069098Y238141D01*
X1072604Y236688D01*
X1075288Y234004D01*
X1076741Y230498D01*
X1076741Y226702D01*
X1075288Y223196D01*
X1072604Y220512D01*
X1069098Y219059D01*
X1065302Y219059D01*
G37*
%LPD*%
%LPC*%
G36*
X861702Y866759D02*
X861702Y866759D01*
X858196Y868212D01*
X855512Y870896D01*
X854059Y874402D01*
X854059Y878198D01*
X855512Y881704D01*
X858196Y884388D01*
X861702Y885841D01*
X865498Y885841D01*
X869004Y884388D01*
X871688Y881704D01*
X873141Y878198D01*
X873141Y874402D01*
X871688Y870896D01*
X869004Y868212D01*
X865498Y866759D01*
X861702Y866759D01*
G37*
%LPD*%
%LPC*%
G36*
X99702Y866759D02*
X99702Y866759D01*
X96196Y868212D01*
X93512Y870896D01*
X92059Y874402D01*
X92059Y878198D01*
X93512Y881704D01*
X96196Y884388D01*
X99702Y885841D01*
X103498Y885841D01*
X107004Y884388D01*
X109688Y881704D01*
X111141Y878198D01*
X111141Y874402D01*
X109688Y870896D01*
X107004Y868212D01*
X103498Y866759D01*
X99702Y866759D01*
G37*
%LPD*%
%LPC*%
G36*
X1090302Y219059D02*
X1090302Y219059D01*
X1086796Y220512D01*
X1084112Y223196D01*
X1082659Y226702D01*
X1082659Y230498D01*
X1084112Y234004D01*
X1086796Y236688D01*
X1090302Y238141D01*
X1094098Y238141D01*
X1097604Y236688D01*
X1100288Y234004D01*
X1101741Y230498D01*
X1101741Y226702D01*
X1100288Y223196D01*
X1097604Y220512D01*
X1094098Y219059D01*
X1090302Y219059D01*
G37*
%LPD*%
%LPC*%
G36*
X1115302Y219059D02*
X1115302Y219059D01*
X1111796Y220512D01*
X1109112Y223196D01*
X1107659Y226702D01*
X1107659Y230498D01*
X1109112Y234004D01*
X1111796Y236688D01*
X1115302Y238141D01*
X1119098Y238141D01*
X1122604Y236688D01*
X1125288Y234004D01*
X1126741Y230498D01*
X1126741Y226702D01*
X1125288Y223196D01*
X1122604Y220512D01*
X1119098Y219059D01*
X1115302Y219059D01*
G37*
%LPD*%
%LPC*%
G36*
X861702Y892159D02*
X861702Y892159D01*
X858196Y893612D01*
X855512Y896296D01*
X854059Y899802D01*
X854059Y903598D01*
X855512Y907104D01*
X858196Y909788D01*
X861702Y911241D01*
X865498Y911241D01*
X869004Y909788D01*
X871688Y907104D01*
X873141Y903598D01*
X873141Y899802D01*
X871688Y896296D01*
X869004Y893612D01*
X865498Y892159D01*
X861702Y892159D01*
G37*
%LPD*%
%LPC*%
G36*
X99702Y409559D02*
X99702Y409559D01*
X96196Y411012D01*
X93512Y413696D01*
X92059Y417202D01*
X92059Y420998D01*
X93512Y424504D01*
X96196Y427188D01*
X99702Y428641D01*
X103498Y428641D01*
X107004Y427188D01*
X109688Y424504D01*
X111141Y420998D01*
X111141Y417202D01*
X109688Y413696D01*
X107004Y411012D01*
X103498Y409559D01*
X99702Y409559D01*
G37*
%LPD*%
%LPC*%
G36*
X861702Y409559D02*
X861702Y409559D01*
X858196Y411012D01*
X855512Y413696D01*
X854059Y417202D01*
X854059Y420998D01*
X855512Y424504D01*
X858196Y427188D01*
X861702Y428641D01*
X865498Y428641D01*
X869004Y427188D01*
X871688Y424504D01*
X873141Y420998D01*
X873141Y417202D01*
X871688Y413696D01*
X869004Y411012D01*
X865498Y409559D01*
X861702Y409559D01*
G37*
%LPD*%
%LPC*%
G36*
X861702Y841359D02*
X861702Y841359D01*
X858196Y842812D01*
X855512Y845496D01*
X854059Y849002D01*
X854059Y852798D01*
X855512Y856304D01*
X858196Y858988D01*
X861702Y860441D01*
X865498Y860441D01*
X869004Y858988D01*
X871688Y856304D01*
X873141Y852798D01*
X873141Y849002D01*
X871688Y845496D01*
X869004Y842812D01*
X865498Y841359D01*
X861702Y841359D01*
G37*
%LPD*%
%LPC*%
G36*
X99702Y841359D02*
X99702Y841359D01*
X96196Y842812D01*
X93512Y845496D01*
X92059Y849002D01*
X92059Y852798D01*
X93512Y856304D01*
X96196Y858988D01*
X99702Y860441D01*
X103498Y860441D01*
X107004Y858988D01*
X109688Y856304D01*
X111141Y852798D01*
X111141Y849002D01*
X109688Y845496D01*
X107004Y842812D01*
X103498Y841359D01*
X99702Y841359D01*
G37*
%LPD*%
%LPC*%
G36*
X99702Y434959D02*
X99702Y434959D01*
X96196Y436412D01*
X93512Y439096D01*
X92059Y442602D01*
X92059Y446398D01*
X93512Y449904D01*
X96196Y452588D01*
X99702Y454041D01*
X103498Y454041D01*
X107004Y452588D01*
X109688Y449904D01*
X111141Y446398D01*
X111141Y442602D01*
X109688Y439096D01*
X107004Y436412D01*
X103498Y434959D01*
X99702Y434959D01*
G37*
%LPD*%
%LPC*%
G36*
X861702Y434959D02*
X861702Y434959D01*
X858196Y436412D01*
X855512Y439096D01*
X854059Y442602D01*
X854059Y446398D01*
X855512Y449904D01*
X858196Y452588D01*
X861702Y454041D01*
X865498Y454041D01*
X869004Y452588D01*
X871688Y449904D01*
X873141Y446398D01*
X873141Y442602D01*
X871688Y439096D01*
X869004Y436412D01*
X865498Y434959D01*
X861702Y434959D01*
G37*
%LPD*%
%LPC*%
G36*
X99702Y460359D02*
X99702Y460359D01*
X96196Y461812D01*
X93512Y464496D01*
X92059Y468002D01*
X92059Y471798D01*
X93512Y475304D01*
X96196Y477988D01*
X99702Y479441D01*
X103498Y479441D01*
X107004Y477988D01*
X109688Y475304D01*
X111141Y471798D01*
X111141Y468002D01*
X109688Y464496D01*
X107004Y461812D01*
X103498Y460359D01*
X99702Y460359D01*
G37*
%LPD*%
%LPC*%
G36*
X861702Y460359D02*
X861702Y460359D01*
X858196Y461812D01*
X855512Y464496D01*
X854059Y468002D01*
X854059Y471798D01*
X855512Y475304D01*
X858196Y477988D01*
X861702Y479441D01*
X865498Y479441D01*
X869004Y477988D01*
X871688Y475304D01*
X873141Y471798D01*
X873141Y468002D01*
X871688Y464496D01*
X869004Y461812D01*
X865498Y460359D01*
X861702Y460359D01*
G37*
%LPD*%
%LPC*%
G36*
X861702Y765159D02*
X861702Y765159D01*
X858196Y766612D01*
X855512Y769296D01*
X854059Y772802D01*
X854059Y776598D01*
X855512Y780104D01*
X858196Y782788D01*
X861702Y784241D01*
X865498Y784241D01*
X869004Y782788D01*
X871688Y780104D01*
X873141Y776598D01*
X873141Y772802D01*
X871688Y769296D01*
X869004Y766612D01*
X865498Y765159D01*
X861702Y765159D01*
G37*
%LPD*%
%LPC*%
G36*
X99702Y790559D02*
X99702Y790559D01*
X96196Y792012D01*
X93512Y794696D01*
X92059Y798202D01*
X92059Y801998D01*
X93512Y805504D01*
X96196Y808188D01*
X99702Y809641D01*
X103498Y809641D01*
X107004Y808188D01*
X109688Y805504D01*
X111141Y801998D01*
X111141Y798202D01*
X109688Y794696D01*
X107004Y792012D01*
X103498Y790559D01*
X99702Y790559D01*
G37*
%LPD*%
%LPC*%
G36*
X861702Y790559D02*
X861702Y790559D01*
X858196Y792012D01*
X855512Y794696D01*
X854059Y798202D01*
X854059Y801998D01*
X855512Y805504D01*
X858196Y808188D01*
X861702Y809641D01*
X865498Y809641D01*
X869004Y808188D01*
X871688Y805504D01*
X873141Y801998D01*
X873141Y798202D01*
X871688Y794696D01*
X869004Y792012D01*
X865498Y790559D01*
X861702Y790559D01*
G37*
%LPD*%
%LPC*%
G36*
X99702Y511159D02*
X99702Y511159D01*
X96196Y512612D01*
X93512Y515296D01*
X92059Y518802D01*
X92059Y522598D01*
X93512Y526104D01*
X96196Y528788D01*
X99702Y530241D01*
X103498Y530241D01*
X107004Y528788D01*
X109688Y526104D01*
X111141Y522598D01*
X111141Y518802D01*
X109688Y515296D01*
X107004Y512612D01*
X103498Y511159D01*
X99702Y511159D01*
G37*
%LPD*%
%LPC*%
G36*
X861702Y511159D02*
X861702Y511159D01*
X858196Y512612D01*
X855512Y515296D01*
X854059Y518802D01*
X854059Y522598D01*
X855512Y526104D01*
X858196Y528788D01*
X861702Y530241D01*
X865498Y530241D01*
X869004Y528788D01*
X871688Y526104D01*
X873141Y522598D01*
X873141Y518802D01*
X871688Y515296D01*
X869004Y512612D01*
X865498Y511159D01*
X861702Y511159D01*
G37*
%LPD*%
%LPC*%
G36*
X99702Y536559D02*
X99702Y536559D01*
X96196Y538012D01*
X93512Y540696D01*
X92059Y544202D01*
X92059Y547998D01*
X93512Y551504D01*
X96196Y554188D01*
X99702Y555641D01*
X103498Y555641D01*
X107004Y554188D01*
X109688Y551504D01*
X111141Y547998D01*
X111141Y544202D01*
X109688Y540696D01*
X107004Y538012D01*
X103498Y536559D01*
X99702Y536559D01*
G37*
%LPD*%
%LPC*%
G36*
X861702Y536559D02*
X861702Y536559D01*
X858196Y538012D01*
X855512Y540696D01*
X854059Y544202D01*
X854059Y547998D01*
X855512Y551504D01*
X858196Y554188D01*
X861702Y555641D01*
X865498Y555641D01*
X869004Y554188D01*
X871688Y551504D01*
X873141Y547998D01*
X873141Y544202D01*
X871688Y540696D01*
X869004Y538012D01*
X865498Y536559D01*
X861702Y536559D01*
G37*
%LPD*%
%LPC*%
G36*
X99702Y561959D02*
X99702Y561959D01*
X96196Y563412D01*
X93512Y566096D01*
X92059Y569602D01*
X92059Y573398D01*
X93512Y576904D01*
X96196Y579588D01*
X99702Y581041D01*
X103498Y581041D01*
X107004Y579588D01*
X109688Y576904D01*
X111141Y573398D01*
X111141Y569602D01*
X109688Y566096D01*
X107004Y563412D01*
X103498Y561959D01*
X99702Y561959D01*
G37*
%LPD*%
%LPC*%
G36*
X861702Y561959D02*
X861702Y561959D01*
X858196Y563412D01*
X855512Y566096D01*
X854059Y569602D01*
X854059Y573398D01*
X855512Y576904D01*
X858196Y579588D01*
X861702Y581041D01*
X865498Y581041D01*
X869004Y579588D01*
X871688Y576904D01*
X873141Y573398D01*
X873141Y569602D01*
X871688Y566096D01*
X869004Y563412D01*
X865498Y561959D01*
X861702Y561959D01*
G37*
%LPD*%
%LPC*%
G36*
X1065302Y574659D02*
X1065302Y574659D01*
X1061796Y576112D01*
X1059112Y578796D01*
X1057659Y582302D01*
X1057659Y586098D01*
X1059112Y589604D01*
X1061796Y592288D01*
X1065302Y593741D01*
X1069098Y593741D01*
X1072604Y592288D01*
X1075288Y589604D01*
X1076741Y586098D01*
X1076741Y582302D01*
X1075288Y578796D01*
X1072604Y576112D01*
X1069098Y574659D01*
X1065302Y574659D01*
G37*
%LPD*%
%LPC*%
G36*
X1090302Y574659D02*
X1090302Y574659D01*
X1086796Y576112D01*
X1084112Y578796D01*
X1082659Y582302D01*
X1082659Y586098D01*
X1084112Y589604D01*
X1086796Y592288D01*
X1090302Y593741D01*
X1094098Y593741D01*
X1097604Y592288D01*
X1100288Y589604D01*
X1101741Y586098D01*
X1101741Y582302D01*
X1100288Y578796D01*
X1097604Y576112D01*
X1094098Y574659D01*
X1090302Y574659D01*
G37*
%LPD*%
%LPC*%
G36*
X1115302Y574659D02*
X1115302Y574659D01*
X1111796Y576112D01*
X1109112Y578796D01*
X1107659Y582302D01*
X1107659Y586098D01*
X1109112Y589604D01*
X1111796Y592288D01*
X1115302Y593741D01*
X1119098Y593741D01*
X1122604Y592288D01*
X1125288Y589604D01*
X1126741Y586098D01*
X1126741Y582302D01*
X1125288Y578796D01*
X1122604Y576112D01*
X1119098Y574659D01*
X1115302Y574659D01*
G37*
%LPD*%
%LPC*%
G36*
X99702Y587359D02*
X99702Y587359D01*
X96196Y588812D01*
X93512Y591496D01*
X92059Y595002D01*
X92059Y598798D01*
X93512Y602304D01*
X96196Y604988D01*
X99702Y606441D01*
X103498Y606441D01*
X107004Y604988D01*
X109688Y602304D01*
X111141Y598798D01*
X111141Y595002D01*
X109688Y591496D01*
X107004Y588812D01*
X103498Y587359D01*
X99702Y587359D01*
G37*
%LPD*%
%LPC*%
G36*
X861702Y587359D02*
X861702Y587359D01*
X858196Y588812D01*
X855512Y591496D01*
X854059Y595002D01*
X854059Y598798D01*
X855512Y602304D01*
X858196Y604988D01*
X861702Y606441D01*
X865498Y606441D01*
X869004Y604988D01*
X871688Y602304D01*
X873141Y598798D01*
X873141Y595002D01*
X871688Y591496D01*
X869004Y588812D01*
X865498Y587359D01*
X861702Y587359D01*
G37*
%LPD*%
%LPC*%
G36*
X99702Y612759D02*
X99702Y612759D01*
X96196Y614212D01*
X93512Y616896D01*
X92059Y620402D01*
X92059Y624198D01*
X93512Y627704D01*
X96196Y630388D01*
X99702Y631841D01*
X103498Y631841D01*
X107004Y630388D01*
X109688Y627704D01*
X111141Y624198D01*
X111141Y620402D01*
X109688Y616896D01*
X107004Y614212D01*
X103498Y612759D01*
X99702Y612759D01*
G37*
%LPD*%
%LPC*%
G36*
X861702Y612759D02*
X861702Y612759D01*
X858196Y614212D01*
X855512Y616896D01*
X854059Y620402D01*
X854059Y624198D01*
X855512Y627704D01*
X858196Y630388D01*
X861702Y631841D01*
X865498Y631841D01*
X869004Y630388D01*
X871688Y627704D01*
X873141Y624198D01*
X873141Y620402D01*
X871688Y616896D01*
X869004Y614212D01*
X865498Y612759D01*
X861702Y612759D01*
G37*
%LPD*%
%LPC*%
G36*
X99702Y638159D02*
X99702Y638159D01*
X96196Y639612D01*
X93512Y642296D01*
X92059Y645802D01*
X92059Y649598D01*
X93512Y653104D01*
X96196Y655788D01*
X99702Y657241D01*
X103498Y657241D01*
X107004Y655788D01*
X109688Y653104D01*
X111141Y649598D01*
X111141Y645802D01*
X109688Y642296D01*
X107004Y639612D01*
X103498Y638159D01*
X99702Y638159D01*
G37*
%LPD*%
%LPC*%
G36*
X861702Y638159D02*
X861702Y638159D01*
X858196Y639612D01*
X855512Y642296D01*
X854059Y645802D01*
X854059Y649598D01*
X855512Y653104D01*
X858196Y655788D01*
X861702Y657241D01*
X865498Y657241D01*
X869004Y655788D01*
X871688Y653104D01*
X873141Y649598D01*
X873141Y645802D01*
X871688Y642296D01*
X869004Y639612D01*
X865498Y638159D01*
X861702Y638159D01*
G37*
%LPD*%
%LPC*%
G36*
X99702Y663559D02*
X99702Y663559D01*
X96196Y665012D01*
X93512Y667696D01*
X92059Y671202D01*
X92059Y674998D01*
X93512Y678504D01*
X96196Y681188D01*
X99702Y682641D01*
X103498Y682641D01*
X107004Y681188D01*
X109688Y678504D01*
X111141Y674998D01*
X111141Y671202D01*
X109688Y667696D01*
X107004Y665012D01*
X103498Y663559D01*
X99702Y663559D01*
G37*
%LPD*%
%LPC*%
G36*
X861702Y663559D02*
X861702Y663559D01*
X858196Y665012D01*
X855512Y667696D01*
X854059Y671202D01*
X854059Y674998D01*
X855512Y678504D01*
X858196Y681188D01*
X861702Y682641D01*
X865498Y682641D01*
X869004Y681188D01*
X871688Y678504D01*
X873141Y674998D01*
X873141Y671202D01*
X871688Y667696D01*
X869004Y665012D01*
X865498Y663559D01*
X861702Y663559D01*
G37*
%LPD*%
%LPC*%
G36*
X861702Y688959D02*
X861702Y688959D01*
X858196Y690412D01*
X855512Y693096D01*
X854059Y696602D01*
X854059Y700398D01*
X855512Y703904D01*
X858196Y706588D01*
X861702Y708041D01*
X865498Y708041D01*
X869004Y706588D01*
X871688Y703904D01*
X873141Y700398D01*
X873141Y696602D01*
X871688Y693096D01*
X869004Y690412D01*
X865498Y688959D01*
X861702Y688959D01*
G37*
%LPD*%
%LPC*%
G36*
X861702Y815959D02*
X861702Y815959D01*
X858196Y817412D01*
X855512Y820096D01*
X854059Y823602D01*
X854059Y827398D01*
X855512Y830904D01*
X858196Y833588D01*
X861702Y835041D01*
X865498Y835041D01*
X869004Y833588D01*
X871688Y830904D01*
X873141Y827398D01*
X873141Y823602D01*
X871688Y820096D01*
X869004Y817412D01*
X865498Y815959D01*
X861702Y815959D01*
G37*
%LPD*%
%LPC*%
G36*
X99702Y815959D02*
X99702Y815959D01*
X96196Y817412D01*
X93512Y820096D01*
X92059Y823602D01*
X92059Y827398D01*
X93512Y830904D01*
X96196Y833588D01*
X99702Y835041D01*
X103498Y835041D01*
X107004Y833588D01*
X109688Y830904D01*
X111141Y827398D01*
X111141Y823602D01*
X109688Y820096D01*
X107004Y817412D01*
X103498Y815959D01*
X99702Y815959D01*
G37*
%LPD*%
%LPC*%
G36*
X99702Y714359D02*
X99702Y714359D01*
X96196Y715812D01*
X93512Y718496D01*
X92059Y722002D01*
X92059Y725798D01*
X93512Y729304D01*
X96196Y731988D01*
X99702Y733441D01*
X103498Y733441D01*
X107004Y731988D01*
X109688Y729304D01*
X111141Y725798D01*
X111141Y722002D01*
X109688Y718496D01*
X107004Y715812D01*
X103498Y714359D01*
X99702Y714359D01*
G37*
%LPD*%
%LPC*%
G36*
X861702Y714359D02*
X861702Y714359D01*
X858196Y715812D01*
X855512Y718496D01*
X854059Y722002D01*
X854059Y725798D01*
X855512Y729304D01*
X858196Y731988D01*
X861702Y733441D01*
X865498Y733441D01*
X869004Y731988D01*
X871688Y729304D01*
X873141Y725798D01*
X873141Y722002D01*
X871688Y718496D01*
X869004Y715812D01*
X865498Y714359D01*
X861702Y714359D01*
G37*
%LPD*%
%LPC*%
G36*
X99702Y739759D02*
X99702Y739759D01*
X96196Y741212D01*
X93512Y743896D01*
X92059Y747402D01*
X92059Y751198D01*
X93512Y754704D01*
X96196Y757388D01*
X99702Y758841D01*
X103498Y758841D01*
X107004Y757388D01*
X109688Y754704D01*
X111141Y751198D01*
X111141Y747402D01*
X109688Y743896D01*
X107004Y741212D01*
X103498Y739759D01*
X99702Y739759D01*
G37*
%LPD*%
%LPC*%
G36*
X861702Y739759D02*
X861702Y739759D01*
X858196Y741212D01*
X855512Y743896D01*
X854059Y747402D01*
X854059Y751198D01*
X855512Y754704D01*
X858196Y757388D01*
X861702Y758841D01*
X865498Y758841D01*
X869004Y757388D01*
X871688Y754704D01*
X873141Y751198D01*
X873141Y747402D01*
X871688Y743896D01*
X869004Y741212D01*
X865498Y739759D01*
X861702Y739759D01*
G37*
%LPD*%
%LPC*%
G36*
X99702Y765159D02*
X99702Y765159D01*
X96196Y766612D01*
X93512Y769296D01*
X92059Y772802D01*
X92059Y776598D01*
X93512Y780104D01*
X96196Y782788D01*
X99702Y784241D01*
X103498Y784241D01*
X107004Y782788D01*
X109688Y780104D01*
X111141Y776598D01*
X111141Y772802D01*
X109688Y769296D01*
X107004Y766612D01*
X103498Y765159D01*
X99702Y765159D01*
G37*
%LPD*%
%LPC*%
G36*
X861702Y485759D02*
X861702Y485759D01*
X858196Y487212D01*
X855512Y489896D01*
X854059Y493402D01*
X854059Y497198D01*
X855512Y500704D01*
X858196Y503388D01*
X861702Y504841D01*
X865498Y504841D01*
X869004Y503388D01*
X871688Y500704D01*
X873141Y497198D01*
X873141Y493402D01*
X871688Y489896D01*
X869004Y487212D01*
X865498Y485759D01*
X861702Y485759D01*
G37*
%LPD*%
%LPC*%
G36*
X99702Y485759D02*
X99702Y485759D01*
X96196Y487212D01*
X93512Y489896D01*
X92059Y493402D01*
X92059Y497198D01*
X93512Y500704D01*
X96196Y503388D01*
X99702Y504841D01*
X103498Y504841D01*
X107004Y503388D01*
X109688Y500704D01*
X111141Y497198D01*
X111141Y493402D01*
X109688Y489896D01*
X107004Y487212D01*
X103498Y485759D01*
X99702Y485759D01*
G37*
%LPD*%
%LPC*%
G36*
X1090414Y473619D02*
X1090414Y473619D01*
X1087113Y474986D01*
X1084586Y477513D01*
X1083219Y480814D01*
X1083219Y484386D01*
X1084586Y487687D01*
X1087113Y490214D01*
X1090414Y491581D01*
X1093986Y491581D01*
X1097287Y490214D01*
X1099814Y487687D01*
X1101181Y484386D01*
X1101181Y480814D01*
X1099814Y477513D01*
X1097287Y474986D01*
X1093986Y473619D01*
X1090414Y473619D01*
G37*
%LPD*%
%LPC*%
G36*
X509057Y770336D02*
X509057Y770336D01*
X505836Y771670D01*
X503370Y774136D01*
X502036Y777357D01*
X502036Y780843D01*
X503370Y784064D01*
X505836Y786530D01*
X509057Y787864D01*
X512543Y787864D01*
X515764Y786530D01*
X518230Y784064D01*
X519564Y780843D01*
X519564Y777357D01*
X518230Y774136D01*
X515764Y771670D01*
X512543Y770336D01*
X509057Y770336D01*
G37*
%LPD*%
%LPC*%
G36*
X280457Y770336D02*
X280457Y770336D01*
X277236Y771670D01*
X274770Y774136D01*
X273436Y777357D01*
X273436Y780843D01*
X274770Y784064D01*
X277236Y786530D01*
X280457Y787864D01*
X283943Y787864D01*
X287164Y786530D01*
X289630Y784064D01*
X290964Y780843D01*
X290964Y777357D01*
X289630Y774136D01*
X287164Y771670D01*
X283943Y770336D01*
X280457Y770336D01*
G37*
%LPD*%
%LPC*%
G36*
X255057Y770336D02*
X255057Y770336D01*
X251836Y771670D01*
X249370Y774136D01*
X248036Y777357D01*
X248036Y780843D01*
X249370Y784064D01*
X251836Y786530D01*
X255057Y787864D01*
X258543Y787864D01*
X261764Y786530D01*
X264230Y784064D01*
X265564Y780843D01*
X265564Y777357D01*
X264230Y774136D01*
X261764Y771670D01*
X258543Y770336D01*
X255057Y770336D01*
G37*
%LPD*%
%LPC*%
G36*
X534457Y897336D02*
X534457Y897336D01*
X531236Y898670D01*
X528770Y901136D01*
X527436Y904357D01*
X527436Y907843D01*
X528770Y911064D01*
X531236Y913530D01*
X534457Y914864D01*
X537943Y914864D01*
X541164Y913530D01*
X543630Y911064D01*
X544964Y907843D01*
X544964Y904357D01*
X543630Y901136D01*
X541164Y898670D01*
X537943Y897336D01*
X534457Y897336D01*
G37*
%LPD*%
%LPC*%
G36*
X534457Y770336D02*
X534457Y770336D01*
X531236Y771670D01*
X528770Y774136D01*
X527436Y777357D01*
X527436Y780843D01*
X528770Y784064D01*
X531236Y786530D01*
X534457Y787864D01*
X537943Y787864D01*
X541164Y786530D01*
X543630Y784064D01*
X544964Y780843D01*
X544964Y777357D01*
X543630Y774136D01*
X541164Y771670D01*
X537943Y770336D01*
X534457Y770336D01*
G37*
%LPD*%
%LPC*%
G36*
X509057Y871936D02*
X509057Y871936D01*
X505836Y873270D01*
X503370Y875736D01*
X502036Y878957D01*
X502036Y882443D01*
X503370Y885664D01*
X505836Y888130D01*
X509057Y889464D01*
X512543Y889464D01*
X515764Y888130D01*
X518230Y885664D01*
X519564Y882443D01*
X519564Y878957D01*
X518230Y875736D01*
X515764Y873270D01*
X512543Y871936D01*
X509057Y871936D01*
G37*
%LPD*%
%LPC*%
G36*
X509057Y744936D02*
X509057Y744936D01*
X505836Y746270D01*
X503370Y748736D01*
X502036Y751957D01*
X502036Y755443D01*
X503370Y758664D01*
X505836Y761130D01*
X509057Y762464D01*
X512543Y762464D01*
X515764Y761130D01*
X518230Y758664D01*
X519564Y755443D01*
X519564Y751957D01*
X518230Y748736D01*
X515764Y746270D01*
X512543Y744936D01*
X509057Y744936D01*
G37*
%LPD*%
%LPC*%
G36*
X280457Y744936D02*
X280457Y744936D01*
X277236Y746270D01*
X274770Y748736D01*
X273436Y751957D01*
X273436Y755443D01*
X274770Y758664D01*
X277236Y761130D01*
X280457Y762464D01*
X283943Y762464D01*
X287164Y761130D01*
X289630Y758664D01*
X290964Y755443D01*
X290964Y751957D01*
X289630Y748736D01*
X287164Y746270D01*
X283943Y744936D01*
X280457Y744936D01*
G37*
%LPD*%
%LPC*%
G36*
X255057Y744936D02*
X255057Y744936D01*
X251836Y746270D01*
X249370Y748736D01*
X248036Y751957D01*
X248036Y755443D01*
X249370Y758664D01*
X251836Y761130D01*
X255057Y762464D01*
X258543Y762464D01*
X261764Y761130D01*
X264230Y758664D01*
X265564Y755443D01*
X265564Y751957D01*
X264230Y748736D01*
X261764Y746270D01*
X258543Y744936D01*
X255057Y744936D01*
G37*
%LPD*%
%LPC*%
G36*
X534457Y592536D02*
X534457Y592536D01*
X531236Y593870D01*
X528770Y596336D01*
X527436Y599557D01*
X527436Y603043D01*
X528770Y606264D01*
X531236Y608730D01*
X534457Y610064D01*
X537943Y610064D01*
X541164Y608730D01*
X543630Y606264D01*
X544964Y603043D01*
X544964Y599557D01*
X543630Y596336D01*
X541164Y593870D01*
X537943Y592536D01*
X534457Y592536D01*
G37*
%LPD*%
%LPC*%
G36*
X534457Y846536D02*
X534457Y846536D01*
X531236Y847870D01*
X528770Y850336D01*
X527436Y853557D01*
X527436Y857043D01*
X528770Y860264D01*
X531236Y862730D01*
X534457Y864064D01*
X537943Y864064D01*
X541164Y862730D01*
X543630Y860264D01*
X544964Y857043D01*
X544964Y853557D01*
X543630Y850336D01*
X541164Y847870D01*
X537943Y846536D01*
X534457Y846536D01*
G37*
%LPD*%
%LPC*%
G36*
X509057Y897336D02*
X509057Y897336D01*
X505836Y898670D01*
X503370Y901136D01*
X502036Y904357D01*
X502036Y907843D01*
X503370Y911064D01*
X505836Y913530D01*
X509057Y914864D01*
X512543Y914864D01*
X515764Y913530D01*
X518230Y911064D01*
X519564Y907843D01*
X519564Y904357D01*
X518230Y901136D01*
X515764Y898670D01*
X512543Y897336D01*
X509057Y897336D01*
G37*
%LPD*%
%LPC*%
G36*
X255057Y795736D02*
X255057Y795736D01*
X251836Y797070D01*
X249370Y799536D01*
X248036Y802757D01*
X248036Y806243D01*
X249370Y809464D01*
X251836Y811930D01*
X255057Y813264D01*
X258543Y813264D01*
X261764Y811930D01*
X264230Y809464D01*
X265564Y806243D01*
X265564Y802757D01*
X264230Y799536D01*
X261764Y797070D01*
X258543Y795736D01*
X255057Y795736D01*
G37*
%LPD*%
%LPC*%
G36*
X280457Y795736D02*
X280457Y795736D01*
X277236Y797070D01*
X274770Y799536D01*
X273436Y802757D01*
X273436Y806243D01*
X274770Y809464D01*
X277236Y811930D01*
X280457Y813264D01*
X283943Y813264D01*
X287164Y811930D01*
X289630Y809464D01*
X290964Y806243D01*
X290964Y802757D01*
X289630Y799536D01*
X287164Y797070D01*
X283943Y795736D01*
X280457Y795736D01*
G37*
%LPD*%
%LPC*%
G36*
X280457Y897336D02*
X280457Y897336D01*
X277236Y898670D01*
X274770Y901136D01*
X273436Y904357D01*
X273436Y907843D01*
X274770Y911064D01*
X277236Y913530D01*
X280457Y914864D01*
X283943Y914864D01*
X287164Y913530D01*
X289630Y911064D01*
X290964Y907843D01*
X290964Y904357D01*
X289630Y901136D01*
X287164Y898670D01*
X283943Y897336D01*
X280457Y897336D01*
G37*
%LPD*%
%LPC*%
G36*
X255057Y897336D02*
X255057Y897336D01*
X251836Y898670D01*
X249370Y901136D01*
X248036Y904357D01*
X248036Y907843D01*
X249370Y911064D01*
X251836Y913530D01*
X255057Y914864D01*
X258543Y914864D01*
X261764Y913530D01*
X264230Y911064D01*
X265564Y907843D01*
X265564Y904357D01*
X264230Y901136D01*
X261764Y898670D01*
X258543Y897336D01*
X255057Y897336D01*
G37*
%LPD*%
%LPC*%
G36*
X255057Y719536D02*
X255057Y719536D01*
X251836Y720870D01*
X249370Y723336D01*
X248036Y726557D01*
X248036Y730043D01*
X249370Y733264D01*
X251836Y735730D01*
X255057Y737064D01*
X258543Y737064D01*
X261764Y735730D01*
X264230Y733264D01*
X265564Y730043D01*
X265564Y726557D01*
X264230Y723336D01*
X261764Y720870D01*
X258543Y719536D01*
X255057Y719536D01*
G37*
%LPD*%
%LPC*%
G36*
X509057Y846536D02*
X509057Y846536D01*
X505836Y847870D01*
X503370Y850336D01*
X502036Y853557D01*
X502036Y857043D01*
X503370Y860264D01*
X505836Y862730D01*
X509057Y864064D01*
X512543Y864064D01*
X515764Y862730D01*
X518230Y860264D01*
X519564Y857043D01*
X519564Y853557D01*
X518230Y850336D01*
X515764Y847870D01*
X512543Y846536D01*
X509057Y846536D01*
G37*
%LPD*%
%LPC*%
G36*
X280457Y846536D02*
X280457Y846536D01*
X277236Y847870D01*
X274770Y850336D01*
X273436Y853557D01*
X273436Y857043D01*
X274770Y860264D01*
X277236Y862730D01*
X280457Y864064D01*
X283943Y864064D01*
X287164Y862730D01*
X289630Y860264D01*
X290964Y857043D01*
X290964Y853557D01*
X289630Y850336D01*
X287164Y847870D01*
X283943Y846536D01*
X280457Y846536D01*
G37*
%LPD*%
%LPC*%
G36*
X255057Y846536D02*
X255057Y846536D01*
X251836Y847870D01*
X249370Y850336D01*
X248036Y853557D01*
X248036Y857043D01*
X249370Y860264D01*
X251836Y862730D01*
X255057Y864064D01*
X258543Y864064D01*
X261764Y862730D01*
X264230Y860264D01*
X265564Y857043D01*
X265564Y853557D01*
X264230Y850336D01*
X261764Y847870D01*
X258543Y846536D01*
X255057Y846536D01*
G37*
%LPD*%
%LPC*%
G36*
X255057Y617936D02*
X255057Y617936D01*
X251836Y619270D01*
X249370Y621736D01*
X248036Y624957D01*
X248036Y628443D01*
X249370Y631664D01*
X251836Y634130D01*
X255057Y635464D01*
X258543Y635464D01*
X261764Y634130D01*
X264230Y631664D01*
X265564Y628443D01*
X265564Y624957D01*
X264230Y621736D01*
X261764Y619270D01*
X258543Y617936D01*
X255057Y617936D01*
G37*
%LPD*%
%LPC*%
G36*
X280457Y617936D02*
X280457Y617936D01*
X277236Y619270D01*
X274770Y621736D01*
X273436Y624957D01*
X273436Y628443D01*
X274770Y631664D01*
X277236Y634130D01*
X280457Y635464D01*
X283943Y635464D01*
X287164Y634130D01*
X289630Y631664D01*
X290964Y628443D01*
X290964Y624957D01*
X289630Y621736D01*
X287164Y619270D01*
X283943Y617936D01*
X280457Y617936D01*
G37*
%LPD*%
%LPC*%
G36*
X255057Y465536D02*
X255057Y465536D01*
X251836Y466870D01*
X249370Y469336D01*
X248036Y472557D01*
X248036Y476043D01*
X249370Y479264D01*
X251836Y481730D01*
X255057Y483064D01*
X258543Y483064D01*
X261764Y481730D01*
X264230Y479264D01*
X265564Y476043D01*
X265564Y472557D01*
X264230Y469336D01*
X261764Y466870D01*
X258543Y465536D01*
X255057Y465536D01*
G37*
%LPD*%
%LPC*%
G36*
X509057Y795736D02*
X509057Y795736D01*
X505836Y797070D01*
X503370Y799536D01*
X502036Y802757D01*
X502036Y806243D01*
X503370Y809464D01*
X505836Y811930D01*
X509057Y813264D01*
X512543Y813264D01*
X515764Y811930D01*
X518230Y809464D01*
X519564Y806243D01*
X519564Y802757D01*
X518230Y799536D01*
X515764Y797070D01*
X512543Y795736D01*
X509057Y795736D01*
G37*
%LPD*%
%LPC*%
G36*
X534457Y795736D02*
X534457Y795736D01*
X531236Y797070D01*
X528770Y799536D01*
X527436Y802757D01*
X527436Y806243D01*
X528770Y809464D01*
X531236Y811930D01*
X534457Y813264D01*
X537943Y813264D01*
X541164Y811930D01*
X543630Y809464D01*
X544964Y806243D01*
X544964Y802757D01*
X543630Y799536D01*
X541164Y797070D01*
X537943Y795736D01*
X534457Y795736D01*
G37*
%LPD*%
%LPC*%
G36*
X280457Y465536D02*
X280457Y465536D01*
X277236Y466870D01*
X274770Y469336D01*
X273436Y472557D01*
X273436Y476043D01*
X274770Y479264D01*
X277236Y481730D01*
X280457Y483064D01*
X283943Y483064D01*
X287164Y481730D01*
X289630Y479264D01*
X290964Y476043D01*
X290964Y472557D01*
X289630Y469336D01*
X287164Y466870D01*
X283943Y465536D01*
X280457Y465536D01*
G37*
%LPD*%
%LPC*%
G36*
X509057Y465536D02*
X509057Y465536D01*
X505836Y466870D01*
X503370Y469336D01*
X502036Y472557D01*
X502036Y476043D01*
X503370Y479264D01*
X505836Y481730D01*
X509057Y483064D01*
X512543Y483064D01*
X515764Y481730D01*
X518230Y479264D01*
X519564Y476043D01*
X519564Y472557D01*
X518230Y469336D01*
X515764Y466870D01*
X512543Y465536D01*
X509057Y465536D01*
G37*
%LPD*%
%LPC*%
G36*
X534457Y465536D02*
X534457Y465536D01*
X531236Y466870D01*
X528770Y469336D01*
X527436Y472557D01*
X527436Y476043D01*
X528770Y479264D01*
X531236Y481730D01*
X534457Y483064D01*
X537943Y483064D01*
X541164Y481730D01*
X543630Y479264D01*
X544964Y476043D01*
X544964Y472557D01*
X543630Y469336D01*
X541164Y466870D01*
X537943Y465536D01*
X534457Y465536D01*
G37*
%LPD*%
%LPC*%
G36*
X255057Y490936D02*
X255057Y490936D01*
X251836Y492270D01*
X249370Y494736D01*
X248036Y497957D01*
X248036Y501443D01*
X249370Y504664D01*
X251836Y507130D01*
X255057Y508464D01*
X258543Y508464D01*
X261764Y507130D01*
X264230Y504664D01*
X265564Y501443D01*
X265564Y497957D01*
X264230Y494736D01*
X261764Y492270D01*
X258543Y490936D01*
X255057Y490936D01*
G37*
%LPD*%
%LPC*%
G36*
X280457Y490936D02*
X280457Y490936D01*
X277236Y492270D01*
X274770Y494736D01*
X273436Y497957D01*
X273436Y501443D01*
X274770Y504664D01*
X277236Y507130D01*
X280457Y508464D01*
X283943Y508464D01*
X287164Y507130D01*
X289630Y504664D01*
X290964Y501443D01*
X290964Y497957D01*
X289630Y494736D01*
X287164Y492270D01*
X283943Y490936D01*
X280457Y490936D01*
G37*
%LPD*%
%LPC*%
G36*
X509057Y490936D02*
X509057Y490936D01*
X505836Y492270D01*
X503370Y494736D01*
X502036Y497957D01*
X502036Y501443D01*
X503370Y504664D01*
X505836Y507130D01*
X509057Y508464D01*
X512543Y508464D01*
X515764Y507130D01*
X518230Y504664D01*
X519564Y501443D01*
X519564Y497957D01*
X518230Y494736D01*
X515764Y492270D01*
X512543Y490936D01*
X509057Y490936D01*
G37*
%LPD*%
%LPC*%
G36*
X534457Y490936D02*
X534457Y490936D01*
X531236Y492270D01*
X528770Y494736D01*
X527436Y497957D01*
X527436Y501443D01*
X528770Y504664D01*
X531236Y507130D01*
X534457Y508464D01*
X537943Y508464D01*
X541164Y507130D01*
X543630Y504664D01*
X544964Y501443D01*
X544964Y497957D01*
X543630Y494736D01*
X541164Y492270D01*
X537943Y490936D01*
X534457Y490936D01*
G37*
%LPD*%
%LPC*%
G36*
X534457Y694136D02*
X534457Y694136D01*
X531236Y695470D01*
X528770Y697936D01*
X527436Y701157D01*
X527436Y704643D01*
X528770Y707864D01*
X531236Y710330D01*
X534457Y711664D01*
X537943Y711664D01*
X541164Y710330D01*
X543630Y707864D01*
X544964Y704643D01*
X544964Y701157D01*
X543630Y697936D01*
X541164Y695470D01*
X537943Y694136D01*
X534457Y694136D01*
G37*
%LPD*%
%LPC*%
G36*
X509057Y694136D02*
X509057Y694136D01*
X505836Y695470D01*
X503370Y697936D01*
X502036Y701157D01*
X502036Y704643D01*
X503370Y707864D01*
X505836Y710330D01*
X509057Y711664D01*
X512543Y711664D01*
X515764Y710330D01*
X518230Y707864D01*
X519564Y704643D01*
X519564Y701157D01*
X518230Y697936D01*
X515764Y695470D01*
X512543Y694136D01*
X509057Y694136D01*
G37*
%LPD*%
%LPC*%
G36*
X280457Y694136D02*
X280457Y694136D01*
X277236Y695470D01*
X274770Y697936D01*
X273436Y701157D01*
X273436Y704643D01*
X274770Y707864D01*
X277236Y710330D01*
X280457Y711664D01*
X283943Y711664D01*
X287164Y710330D01*
X289630Y707864D01*
X290964Y704643D01*
X290964Y701157D01*
X289630Y697936D01*
X287164Y695470D01*
X283943Y694136D01*
X280457Y694136D01*
G37*
%LPD*%
%LPC*%
G36*
X255057Y694136D02*
X255057Y694136D01*
X251836Y695470D01*
X249370Y697936D01*
X248036Y701157D01*
X248036Y704643D01*
X249370Y707864D01*
X251836Y710330D01*
X255057Y711664D01*
X258543Y711664D01*
X261764Y710330D01*
X264230Y707864D01*
X265564Y704643D01*
X265564Y701157D01*
X264230Y697936D01*
X261764Y695470D01*
X258543Y694136D01*
X255057Y694136D01*
G37*
%LPD*%
%LPC*%
G36*
X255057Y516336D02*
X255057Y516336D01*
X251836Y517670D01*
X249370Y520136D01*
X248036Y523357D01*
X248036Y526843D01*
X249370Y530064D01*
X251836Y532530D01*
X255057Y533864D01*
X258543Y533864D01*
X261764Y532530D01*
X264230Y530064D01*
X265564Y526843D01*
X265564Y523357D01*
X264230Y520136D01*
X261764Y517670D01*
X258543Y516336D01*
X255057Y516336D01*
G37*
%LPD*%
%LPC*%
G36*
X255057Y871936D02*
X255057Y871936D01*
X251836Y873270D01*
X249370Y875736D01*
X248036Y878957D01*
X248036Y882443D01*
X249370Y885664D01*
X251836Y888130D01*
X255057Y889464D01*
X258543Y889464D01*
X261764Y888130D01*
X264230Y885664D01*
X265564Y882443D01*
X265564Y878957D01*
X264230Y875736D01*
X261764Y873270D01*
X258543Y871936D01*
X255057Y871936D01*
G37*
%LPD*%
%LPC*%
G36*
X534457Y871936D02*
X534457Y871936D01*
X531236Y873270D01*
X528770Y875736D01*
X527436Y878957D01*
X527436Y882443D01*
X528770Y885664D01*
X531236Y888130D01*
X534457Y889464D01*
X537943Y889464D01*
X541164Y888130D01*
X543630Y885664D01*
X544964Y882443D01*
X544964Y878957D01*
X543630Y875736D01*
X541164Y873270D01*
X537943Y871936D01*
X534457Y871936D01*
G37*
%LPD*%
%LPC*%
G36*
X280457Y516336D02*
X280457Y516336D01*
X277236Y517670D01*
X274770Y520136D01*
X273436Y523357D01*
X273436Y526843D01*
X274770Y530064D01*
X277236Y532530D01*
X280457Y533864D01*
X283943Y533864D01*
X287164Y532530D01*
X289630Y530064D01*
X290964Y526843D01*
X290964Y523357D01*
X289630Y520136D01*
X287164Y517670D01*
X283943Y516336D01*
X280457Y516336D01*
G37*
%LPD*%
%LPC*%
G36*
X534457Y668736D02*
X534457Y668736D01*
X531236Y670070D01*
X528770Y672536D01*
X527436Y675757D01*
X527436Y679243D01*
X528770Y682464D01*
X531236Y684930D01*
X534457Y686264D01*
X537943Y686264D01*
X541164Y684930D01*
X543630Y682464D01*
X544964Y679243D01*
X544964Y675757D01*
X543630Y672536D01*
X541164Y670070D01*
X537943Y668736D01*
X534457Y668736D01*
G37*
%LPD*%
%LPC*%
G36*
X509057Y668736D02*
X509057Y668736D01*
X505836Y670070D01*
X503370Y672536D01*
X502036Y675757D01*
X502036Y679243D01*
X503370Y682464D01*
X505836Y684930D01*
X509057Y686264D01*
X512543Y686264D01*
X515764Y684930D01*
X518230Y682464D01*
X519564Y679243D01*
X519564Y675757D01*
X518230Y672536D01*
X515764Y670070D01*
X512543Y668736D01*
X509057Y668736D01*
G37*
%LPD*%
%LPC*%
G36*
X280457Y668736D02*
X280457Y668736D01*
X277236Y670070D01*
X274770Y672536D01*
X273436Y675757D01*
X273436Y679243D01*
X274770Y682464D01*
X277236Y684930D01*
X280457Y686264D01*
X283943Y686264D01*
X287164Y684930D01*
X289630Y682464D01*
X290964Y679243D01*
X290964Y675757D01*
X289630Y672536D01*
X287164Y670070D01*
X283943Y668736D01*
X280457Y668736D01*
G37*
%LPD*%
%LPC*%
G36*
X255057Y668736D02*
X255057Y668736D01*
X251836Y670070D01*
X249370Y672536D01*
X248036Y675757D01*
X248036Y679243D01*
X249370Y682464D01*
X251836Y684930D01*
X255057Y686264D01*
X258543Y686264D01*
X261764Y684930D01*
X264230Y682464D01*
X265564Y679243D01*
X265564Y675757D01*
X264230Y672536D01*
X261764Y670070D01*
X258543Y668736D01*
X255057Y668736D01*
G37*
%LPD*%
%LPC*%
G36*
X509057Y516336D02*
X509057Y516336D01*
X505836Y517670D01*
X503370Y520136D01*
X502036Y523357D01*
X502036Y526843D01*
X503370Y530064D01*
X505836Y532530D01*
X509057Y533864D01*
X512543Y533864D01*
X515764Y532530D01*
X518230Y530064D01*
X519564Y526843D01*
X519564Y523357D01*
X518230Y520136D01*
X515764Y517670D01*
X512543Y516336D01*
X509057Y516336D01*
G37*
%LPD*%
%LPC*%
G36*
X534457Y516336D02*
X534457Y516336D01*
X531236Y517670D01*
X528770Y520136D01*
X527436Y523357D01*
X527436Y526843D01*
X528770Y530064D01*
X531236Y532530D01*
X534457Y533864D01*
X537943Y533864D01*
X541164Y532530D01*
X543630Y530064D01*
X544964Y526843D01*
X544964Y523357D01*
X543630Y520136D01*
X541164Y517670D01*
X537943Y516336D01*
X534457Y516336D01*
G37*
%LPD*%
%LPC*%
G36*
X280457Y821136D02*
X280457Y821136D01*
X277236Y822470D01*
X274770Y824936D01*
X273436Y828157D01*
X273436Y831643D01*
X274770Y834864D01*
X277236Y837330D01*
X280457Y838664D01*
X283943Y838664D01*
X287164Y837330D01*
X289630Y834864D01*
X290964Y831643D01*
X290964Y828157D01*
X289630Y824936D01*
X287164Y822470D01*
X283943Y821136D01*
X280457Y821136D01*
G37*
%LPD*%
%LPC*%
G36*
X280457Y871936D02*
X280457Y871936D01*
X277236Y873270D01*
X274770Y875736D01*
X273436Y878957D01*
X273436Y882443D01*
X274770Y885664D01*
X277236Y888130D01*
X280457Y889464D01*
X283943Y889464D01*
X287164Y888130D01*
X289630Y885664D01*
X290964Y882443D01*
X290964Y878957D01*
X289630Y875736D01*
X287164Y873270D01*
X283943Y871936D01*
X280457Y871936D01*
G37*
%LPD*%
%LPC*%
G36*
X255057Y821136D02*
X255057Y821136D01*
X251836Y822470D01*
X249370Y824936D01*
X248036Y828157D01*
X248036Y831643D01*
X249370Y834864D01*
X251836Y837330D01*
X255057Y838664D01*
X258543Y838664D01*
X261764Y837330D01*
X264230Y834864D01*
X265564Y831643D01*
X265564Y828157D01*
X264230Y824936D01*
X261764Y822470D01*
X258543Y821136D01*
X255057Y821136D01*
G37*
%LPD*%
%LPC*%
G36*
X255057Y541736D02*
X255057Y541736D01*
X251836Y543070D01*
X249370Y545536D01*
X248036Y548757D01*
X248036Y552243D01*
X249370Y555464D01*
X251836Y557930D01*
X255057Y559264D01*
X258543Y559264D01*
X261764Y557930D01*
X264230Y555464D01*
X265564Y552243D01*
X265564Y548757D01*
X264230Y545536D01*
X261764Y543070D01*
X258543Y541736D01*
X255057Y541736D01*
G37*
%LPD*%
%LPC*%
G36*
X534457Y643336D02*
X534457Y643336D01*
X531236Y644670D01*
X528770Y647136D01*
X527436Y650357D01*
X527436Y653843D01*
X528770Y657064D01*
X531236Y659530D01*
X534457Y660864D01*
X537943Y660864D01*
X541164Y659530D01*
X543630Y657064D01*
X544964Y653843D01*
X544964Y650357D01*
X543630Y647136D01*
X541164Y644670D01*
X537943Y643336D01*
X534457Y643336D01*
G37*
%LPD*%
%LPC*%
G36*
X255057Y643336D02*
X255057Y643336D01*
X251836Y644670D01*
X249370Y647136D01*
X248036Y650357D01*
X248036Y653843D01*
X249370Y657064D01*
X251836Y659530D01*
X255057Y660864D01*
X258543Y660864D01*
X261764Y659530D01*
X264230Y657064D01*
X265564Y653843D01*
X265564Y650357D01*
X264230Y647136D01*
X261764Y644670D01*
X258543Y643336D01*
X255057Y643336D01*
G37*
%LPD*%
%LPC*%
G36*
X280457Y541736D02*
X280457Y541736D01*
X277236Y543070D01*
X274770Y545536D01*
X273436Y548757D01*
X273436Y552243D01*
X274770Y555464D01*
X277236Y557930D01*
X280457Y559264D01*
X283943Y559264D01*
X287164Y557930D01*
X289630Y555464D01*
X290964Y552243D01*
X290964Y548757D01*
X289630Y545536D01*
X287164Y543070D01*
X283943Y541736D01*
X280457Y541736D01*
G37*
%LPD*%
%LPC*%
G36*
X509057Y541736D02*
X509057Y541736D01*
X505836Y543070D01*
X503370Y545536D01*
X502036Y548757D01*
X502036Y552243D01*
X503370Y555464D01*
X505836Y557930D01*
X509057Y559264D01*
X512543Y559264D01*
X515764Y557930D01*
X518230Y555464D01*
X519564Y552243D01*
X519564Y548757D01*
X518230Y545536D01*
X515764Y543070D01*
X512543Y541736D01*
X509057Y541736D01*
G37*
%LPD*%
%LPC*%
G36*
X534457Y541736D02*
X534457Y541736D01*
X531236Y543070D01*
X528770Y545536D01*
X527436Y548757D01*
X527436Y552243D01*
X528770Y555464D01*
X531236Y557930D01*
X534457Y559264D01*
X537943Y559264D01*
X541164Y557930D01*
X543630Y555464D01*
X544964Y552243D01*
X544964Y548757D01*
X543630Y545536D01*
X541164Y543070D01*
X537943Y541736D01*
X534457Y541736D01*
G37*
%LPD*%
%LPC*%
G36*
X534457Y821136D02*
X534457Y821136D01*
X531236Y822470D01*
X528770Y824936D01*
X527436Y828157D01*
X527436Y831643D01*
X528770Y834864D01*
X531236Y837330D01*
X534457Y838664D01*
X537943Y838664D01*
X541164Y837330D01*
X543630Y834864D01*
X544964Y831643D01*
X544964Y828157D01*
X543630Y824936D01*
X541164Y822470D01*
X537943Y821136D01*
X534457Y821136D01*
G37*
%LPD*%
%LPC*%
G36*
X509057Y821136D02*
X509057Y821136D01*
X505836Y822470D01*
X503370Y824936D01*
X502036Y828157D01*
X502036Y831643D01*
X503370Y834864D01*
X505836Y837330D01*
X509057Y838664D01*
X512543Y838664D01*
X515764Y837330D01*
X518230Y834864D01*
X519564Y831643D01*
X519564Y828157D01*
X518230Y824936D01*
X515764Y822470D01*
X512543Y821136D01*
X509057Y821136D01*
G37*
%LPD*%
%LPC*%
G36*
X255057Y567136D02*
X255057Y567136D01*
X251836Y568470D01*
X249370Y570936D01*
X248036Y574157D01*
X248036Y577643D01*
X249370Y580864D01*
X251836Y583330D01*
X255057Y584664D01*
X258543Y584664D01*
X261764Y583330D01*
X264230Y580864D01*
X265564Y577643D01*
X265564Y574157D01*
X264230Y570936D01*
X261764Y568470D01*
X258543Y567136D01*
X255057Y567136D01*
G37*
%LPD*%
%LPC*%
G36*
X534457Y567136D02*
X534457Y567136D01*
X531236Y568470D01*
X528770Y570936D01*
X527436Y574157D01*
X527436Y577643D01*
X528770Y580864D01*
X531236Y583330D01*
X534457Y584664D01*
X537943Y584664D01*
X541164Y583330D01*
X543630Y580864D01*
X544964Y577643D01*
X544964Y574157D01*
X543630Y570936D01*
X541164Y568470D01*
X537943Y567136D01*
X534457Y567136D01*
G37*
%LPD*%
%LPC*%
G36*
X280457Y567136D02*
X280457Y567136D01*
X277236Y568470D01*
X274770Y570936D01*
X273436Y574157D01*
X273436Y577643D01*
X274770Y580864D01*
X277236Y583330D01*
X280457Y584664D01*
X283943Y584664D01*
X287164Y583330D01*
X289630Y580864D01*
X290964Y577643D01*
X290964Y574157D01*
X289630Y570936D01*
X287164Y568470D01*
X283943Y567136D01*
X280457Y567136D01*
G37*
%LPD*%
%LPC*%
G36*
X509057Y567136D02*
X509057Y567136D01*
X505836Y568470D01*
X503370Y570936D01*
X502036Y574157D01*
X502036Y577643D01*
X503370Y580864D01*
X505836Y583330D01*
X509057Y584664D01*
X512543Y584664D01*
X515764Y583330D01*
X518230Y580864D01*
X519564Y577643D01*
X519564Y574157D01*
X518230Y570936D01*
X515764Y568470D01*
X512543Y567136D01*
X509057Y567136D01*
G37*
%LPD*%
%LPC*%
G36*
X255057Y592536D02*
X255057Y592536D01*
X251836Y593870D01*
X249370Y596336D01*
X248036Y599557D01*
X248036Y603043D01*
X249370Y606264D01*
X251836Y608730D01*
X255057Y610064D01*
X258543Y610064D01*
X261764Y608730D01*
X264230Y606264D01*
X265564Y603043D01*
X265564Y599557D01*
X264230Y596336D01*
X261764Y593870D01*
X258543Y592536D01*
X255057Y592536D01*
G37*
%LPD*%
%LPC*%
G36*
X280457Y592536D02*
X280457Y592536D01*
X277236Y593870D01*
X274770Y596336D01*
X273436Y599557D01*
X273436Y603043D01*
X274770Y606264D01*
X277236Y608730D01*
X280457Y610064D01*
X283943Y610064D01*
X287164Y608730D01*
X289630Y606264D01*
X290964Y603043D01*
X290964Y599557D01*
X289630Y596336D01*
X287164Y593870D01*
X283943Y592536D01*
X280457Y592536D01*
G37*
%LPD*%
%LPC*%
G36*
X509057Y592536D02*
X509057Y592536D01*
X505836Y593870D01*
X503370Y596336D01*
X502036Y599557D01*
X502036Y603043D01*
X503370Y606264D01*
X505836Y608730D01*
X509057Y610064D01*
X512543Y610064D01*
X515764Y608730D01*
X518230Y606264D01*
X519564Y603043D01*
X519564Y599557D01*
X518230Y596336D01*
X515764Y593870D01*
X512543Y592536D01*
X509057Y592536D01*
G37*
%LPD*%
%LPC*%
G36*
X534457Y617936D02*
X534457Y617936D01*
X531236Y619270D01*
X528770Y621736D01*
X527436Y624957D01*
X527436Y628443D01*
X528770Y631664D01*
X531236Y634130D01*
X534457Y635464D01*
X537943Y635464D01*
X541164Y634130D01*
X543630Y631664D01*
X544964Y628443D01*
X544964Y624957D01*
X543630Y621736D01*
X541164Y619270D01*
X537943Y617936D01*
X534457Y617936D01*
G37*
%LPD*%
%LPC*%
G36*
X509057Y617936D02*
X509057Y617936D01*
X505836Y619270D01*
X503370Y621736D01*
X502036Y624957D01*
X502036Y628443D01*
X503370Y631664D01*
X505836Y634130D01*
X509057Y635464D01*
X512543Y635464D01*
X515764Y634130D01*
X518230Y631664D01*
X519564Y628443D01*
X519564Y624957D01*
X518230Y621736D01*
X515764Y619270D01*
X512543Y617936D01*
X509057Y617936D01*
G37*
%LPD*%
%LPC*%
G36*
X1055639Y841139D02*
X1055639Y841139D01*
X1055639Y850692D01*
X1055990Y850637D01*
X1057279Y850218D01*
X1057368Y850201D01*
X1057453Y850175D01*
X1057523Y850171D01*
X1057592Y850158D01*
X1057681Y850164D01*
X1057771Y850160D01*
X1057839Y850174D01*
X1057909Y850178D01*
X1057994Y850206D01*
X1058082Y850224D01*
X1058145Y850255D01*
X1058212Y850276D01*
X1058287Y850324D01*
X1058368Y850364D01*
X1058421Y850409D01*
X1058480Y850447D01*
X1058542Y850512D01*
X1058610Y850570D01*
X1058650Y850627D01*
X1058698Y850678D01*
X1058741Y850757D01*
X1058793Y850830D01*
X1058818Y850896D01*
X1058851Y850957D01*
X1058874Y851044D01*
X1058906Y851127D01*
X1058913Y851197D01*
X1058931Y851265D01*
X1058931Y851354D01*
X1058941Y851443D01*
X1058931Y851513D01*
X1058931Y851583D01*
X1058909Y851670D01*
X1058896Y851758D01*
X1058856Y851877D01*
X1058852Y851891D01*
X1058849Y851897D01*
X1058844Y851911D01*
X1058671Y852328D01*
X1058671Y854552D01*
X1059522Y856606D01*
X1061094Y858178D01*
X1063148Y859029D01*
X1065372Y859029D01*
X1067426Y858178D01*
X1068998Y856606D01*
X1069849Y854552D01*
X1069849Y852328D01*
X1068998Y850274D01*
X1067426Y848702D01*
X1065372Y847851D01*
X1064124Y847851D01*
X1064084Y847846D01*
X1064044Y847849D01*
X1063927Y847826D01*
X1063808Y847811D01*
X1063771Y847797D01*
X1063732Y847789D01*
X1063623Y847738D01*
X1063512Y847694D01*
X1063480Y847671D01*
X1063444Y847654D01*
X1063352Y847578D01*
X1063255Y847508D01*
X1063230Y847477D01*
X1063199Y847452D01*
X1063129Y847355D01*
X1063052Y847263D01*
X1063035Y847227D01*
X1063012Y847194D01*
X1062968Y847083D01*
X1062917Y846975D01*
X1062909Y846936D01*
X1062895Y846899D01*
X1062879Y846780D01*
X1062857Y846663D01*
X1062859Y846623D01*
X1062854Y846583D01*
X1062869Y846464D01*
X1062877Y846345D01*
X1062889Y846307D01*
X1062894Y846268D01*
X1062938Y846156D01*
X1062975Y846043D01*
X1062996Y846009D01*
X1063011Y845972D01*
X1063097Y845836D01*
X1063655Y845068D01*
X1064537Y843337D01*
X1065137Y841490D01*
X1065192Y841139D01*
X1055639Y841139D01*
G37*
%LPD*%
%LPC*%
G36*
X916008Y841139D02*
X916008Y841139D01*
X916063Y841490D01*
X916663Y843337D01*
X917545Y845068D01*
X917826Y845455D01*
X917846Y845490D01*
X917871Y845520D01*
X917922Y845629D01*
X917980Y845734D01*
X917990Y845772D01*
X918007Y845808D01*
X918029Y845925D01*
X918059Y846042D01*
X918059Y846082D01*
X918066Y846121D01*
X918059Y846240D01*
X918059Y846360D01*
X918049Y846398D01*
X918047Y846438D01*
X918010Y846552D01*
X917980Y846668D01*
X917961Y846703D01*
X917949Y846740D01*
X917884Y846842D01*
X917827Y846946D01*
X917800Y846975D01*
X917778Y847009D01*
X917691Y847091D01*
X917609Y847178D01*
X917576Y847200D01*
X917547Y847227D01*
X917442Y847285D01*
X917341Y847349D01*
X917303Y847361D01*
X917268Y847381D01*
X917153Y847410D01*
X917039Y847448D01*
X916999Y847450D01*
X916960Y847460D01*
X916800Y847470D01*
X915447Y847470D01*
X913393Y848321D01*
X911821Y849893D01*
X910970Y851947D01*
X910970Y854171D01*
X911821Y856225D01*
X913393Y857797D01*
X915447Y858648D01*
X917671Y858648D01*
X919725Y857797D01*
X921297Y856225D01*
X922148Y854171D01*
X922148Y851947D01*
X922098Y851827D01*
X922074Y851740D01*
X922041Y851657D01*
X922032Y851588D01*
X922014Y851520D01*
X922012Y851431D01*
X922001Y851342D01*
X922010Y851272D01*
X922009Y851202D01*
X922030Y851115D01*
X922041Y851026D01*
X922067Y850961D01*
X922083Y850893D01*
X922125Y850814D01*
X922158Y850730D01*
X922199Y850674D01*
X922232Y850612D01*
X922292Y850545D01*
X922344Y850473D01*
X922398Y850428D01*
X922446Y850376D01*
X922520Y850327D01*
X922589Y850270D01*
X922653Y850240D01*
X922711Y850202D01*
X922796Y850173D01*
X922877Y850134D01*
X922946Y850121D01*
X923012Y850098D01*
X923101Y850091D01*
X923189Y850074D01*
X923259Y850079D01*
X923329Y850073D01*
X923417Y850089D01*
X923507Y850094D01*
X923628Y850125D01*
X923642Y850128D01*
X923649Y850130D01*
X923663Y850134D01*
X925210Y850637D01*
X925561Y850692D01*
X925561Y841139D01*
X916008Y841139D01*
G37*
%LPD*%
%LPC*%
G36*
X600868Y858011D02*
X600868Y858011D01*
X598814Y858862D01*
X597242Y860434D01*
X596391Y862488D01*
X596391Y864712D01*
X597242Y866766D01*
X599322Y868846D01*
X601376Y869697D01*
X603600Y869697D01*
X605654Y868846D01*
X607226Y867274D01*
X608077Y865220D01*
X608077Y862996D01*
X607226Y860942D01*
X605146Y858862D01*
X603092Y858011D01*
X600868Y858011D01*
G37*
%LPD*%
%LPC*%
G36*
X565308Y695451D02*
X565308Y695451D01*
X563254Y696302D01*
X561682Y697874D01*
X560831Y699928D01*
X560831Y702152D01*
X561682Y704206D01*
X563254Y705778D01*
X565308Y706629D01*
X567532Y706629D01*
X569586Y705778D01*
X571158Y704206D01*
X572009Y702152D01*
X572009Y699928D01*
X571158Y697874D01*
X569586Y696302D01*
X567532Y695451D01*
X565308Y695451D01*
G37*
%LPD*%
%LPC*%
G36*
X605948Y830071D02*
X605948Y830071D01*
X603894Y830922D01*
X602322Y832494D01*
X601471Y834548D01*
X601471Y836772D01*
X602322Y838826D01*
X603894Y840398D01*
X605948Y841249D01*
X608172Y841249D01*
X610226Y840398D01*
X611798Y838826D01*
X612649Y836772D01*
X612649Y834548D01*
X611798Y832494D01*
X610226Y830922D01*
X608172Y830071D01*
X605948Y830071D01*
G37*
%LPD*%
%LPC*%
G36*
X616108Y619251D02*
X616108Y619251D01*
X614054Y620102D01*
X612482Y621674D01*
X611631Y623728D01*
X611631Y625952D01*
X612482Y628006D01*
X614054Y629578D01*
X616108Y630429D01*
X618332Y630429D01*
X620386Y629578D01*
X621958Y628006D01*
X622809Y625952D01*
X622809Y623728D01*
X621958Y621674D01*
X620386Y620102D01*
X618332Y619251D01*
X616108Y619251D01*
G37*
%LPD*%
%LPC*%
G36*
X578008Y611631D02*
X578008Y611631D01*
X575954Y612482D01*
X574382Y614054D01*
X573531Y616108D01*
X573531Y618332D01*
X574382Y620386D01*
X575954Y621958D01*
X578008Y622809D01*
X580232Y622809D01*
X582286Y621958D01*
X583858Y620386D01*
X584709Y618332D01*
X584709Y616108D01*
X583858Y614054D01*
X582286Y612482D01*
X580232Y611631D01*
X578008Y611631D01*
G37*
%LPD*%
%LPC*%
G36*
X357028Y621791D02*
X357028Y621791D01*
X354974Y622642D01*
X353402Y624214D01*
X352551Y626268D01*
X352551Y628492D01*
X353402Y630546D01*
X354974Y632118D01*
X357028Y632969D01*
X359252Y632969D01*
X361306Y632118D01*
X362878Y630546D01*
X363729Y628492D01*
X363729Y626268D01*
X362878Y624214D01*
X361306Y622642D01*
X359252Y621791D01*
X357028Y621791D01*
G37*
%LPD*%
%LPC*%
G36*
X565308Y629411D02*
X565308Y629411D01*
X563254Y630262D01*
X561682Y631834D01*
X560831Y633888D01*
X560831Y636112D01*
X561682Y638166D01*
X563254Y639738D01*
X565308Y640589D01*
X567532Y640589D01*
X569586Y639738D01*
X571158Y638166D01*
X572009Y636112D01*
X572009Y633888D01*
X571158Y631834D01*
X569586Y630262D01*
X567532Y629411D01*
X565308Y629411D01*
G37*
%LPD*%
%LPC*%
G36*
X651668Y774191D02*
X651668Y774191D01*
X649614Y775042D01*
X648042Y776614D01*
X647191Y778668D01*
X647191Y780892D01*
X648042Y782946D01*
X649614Y784518D01*
X651668Y785369D01*
X653892Y785369D01*
X655946Y784518D01*
X657518Y782946D01*
X658369Y780892D01*
X658369Y778668D01*
X657518Y776614D01*
X655946Y775042D01*
X653892Y774191D01*
X651668Y774191D01*
G37*
%LPD*%
%LPC*%
G36*
X603408Y210311D02*
X603408Y210311D01*
X601354Y211162D01*
X599782Y212734D01*
X598931Y214788D01*
X598931Y217012D01*
X599782Y219066D01*
X601354Y220638D01*
X603408Y221489D01*
X605632Y221489D01*
X607686Y220638D01*
X609258Y219066D01*
X610109Y217012D01*
X610109Y214788D01*
X609258Y212734D01*
X607686Y211162D01*
X605632Y210311D01*
X603408Y210311D01*
G37*
%LPD*%
%LPC*%
G36*
X590708Y685291D02*
X590708Y685291D01*
X588654Y686142D01*
X587082Y687714D01*
X586231Y689768D01*
X586231Y691992D01*
X587082Y694046D01*
X588654Y695618D01*
X590708Y696469D01*
X592932Y696469D01*
X594986Y695618D01*
X596558Y694046D01*
X597409Y691992D01*
X597409Y689768D01*
X596558Y687714D01*
X594986Y686142D01*
X592932Y685291D01*
X590708Y685291D01*
G37*
%LPD*%
%LPC*%
G36*
X635158Y800861D02*
X635158Y800861D01*
X633104Y801712D01*
X631532Y803284D01*
X630681Y805338D01*
X630681Y807562D01*
X631532Y809616D01*
X633104Y811188D01*
X635158Y812039D01*
X637382Y812039D01*
X639436Y811188D01*
X641008Y809616D01*
X641859Y807562D01*
X641859Y805338D01*
X641008Y803284D01*
X639436Y801712D01*
X637382Y800861D01*
X635158Y800861D01*
G37*
%LPD*%
%LPC*%
G36*
X357028Y748791D02*
X357028Y748791D01*
X354974Y749642D01*
X353402Y751214D01*
X352551Y753268D01*
X352551Y755492D01*
X353402Y757546D01*
X354974Y759118D01*
X357028Y759969D01*
X359252Y759969D01*
X361306Y759118D01*
X362878Y757546D01*
X363729Y755492D01*
X363729Y753268D01*
X362878Y751214D01*
X361306Y749642D01*
X359252Y748791D01*
X357028Y748791D01*
G37*
%LPD*%
%LPC*%
G36*
X649128Y426211D02*
X649128Y426211D01*
X647074Y427062D01*
X645502Y428634D01*
X644651Y430688D01*
X644651Y432912D01*
X645502Y434966D01*
X647074Y436538D01*
X649128Y437389D01*
X651352Y437389D01*
X653406Y436538D01*
X654978Y434966D01*
X655829Y432912D01*
X655829Y430688D01*
X654978Y428634D01*
X653406Y427062D01*
X651352Y426211D01*
X649128Y426211D01*
G37*
%LPD*%
%LPC*%
G36*
X633888Y449071D02*
X633888Y449071D01*
X631834Y449922D01*
X630262Y451494D01*
X629411Y453548D01*
X629411Y455772D01*
X630262Y457826D01*
X631834Y459398D01*
X633888Y460249D01*
X636112Y460249D01*
X638166Y459398D01*
X639738Y457826D01*
X640589Y455772D01*
X640589Y453548D01*
X639738Y451494D01*
X638166Y449922D01*
X636112Y449071D01*
X633888Y449071D01*
G37*
%LPD*%
%LPC*%
G36*
X590708Y578611D02*
X590708Y578611D01*
X588654Y579462D01*
X587082Y581034D01*
X586231Y583088D01*
X586231Y585312D01*
X587082Y587366D01*
X588654Y588938D01*
X590708Y589789D01*
X592932Y589789D01*
X594986Y588938D01*
X596558Y587366D01*
X597409Y585312D01*
X597409Y583088D01*
X596558Y581034D01*
X594986Y579462D01*
X592932Y578611D01*
X590708Y578611D01*
G37*
%LPD*%
%LPC*%
G36*
X557688Y578611D02*
X557688Y578611D01*
X555634Y579462D01*
X554062Y581034D01*
X553211Y583088D01*
X553211Y585312D01*
X554062Y587366D01*
X555634Y588938D01*
X557688Y589789D01*
X559912Y589789D01*
X561966Y588938D01*
X563538Y587366D01*
X564389Y585312D01*
X564389Y583088D01*
X563538Y581034D01*
X561966Y579462D01*
X559912Y578611D01*
X557688Y578611D01*
G37*
%LPD*%
%LPC*%
G36*
X603408Y670051D02*
X603408Y670051D01*
X601354Y670902D01*
X599782Y672474D01*
X598931Y674528D01*
X598931Y676752D01*
X599782Y678806D01*
X601354Y680378D01*
X603408Y681229D01*
X605632Y681229D01*
X607686Y680378D01*
X609258Y678806D01*
X610109Y676752D01*
X610109Y674528D01*
X609258Y672474D01*
X607686Y670902D01*
X605632Y670051D01*
X603408Y670051D01*
G37*
%LPD*%
%LPC*%
G36*
X598328Y710691D02*
X598328Y710691D01*
X596274Y711542D01*
X594702Y713114D01*
X593851Y715168D01*
X593851Y717392D01*
X594702Y719446D01*
X596274Y721018D01*
X598328Y721869D01*
X600552Y721869D01*
X602606Y721018D01*
X604178Y719446D01*
X605029Y717392D01*
X605029Y715168D01*
X604178Y713114D01*
X602606Y711542D01*
X600552Y710691D01*
X598328Y710691D01*
G37*
%LPD*%
%LPC*%
G36*
X915828Y469391D02*
X915828Y469391D01*
X913774Y470242D01*
X912202Y471814D01*
X911351Y473868D01*
X911351Y476092D01*
X912202Y478146D01*
X913774Y479718D01*
X915828Y480569D01*
X918052Y480569D01*
X920106Y479718D01*
X921678Y478146D01*
X922529Y476092D01*
X922529Y473868D01*
X921678Y471814D01*
X920106Y470242D01*
X918052Y469391D01*
X915828Y469391D01*
G37*
%LPD*%
%LPC*%
G36*
X613568Y657351D02*
X613568Y657351D01*
X611514Y658202D01*
X609942Y659774D01*
X609091Y661828D01*
X609091Y664052D01*
X609942Y666106D01*
X611514Y667678D01*
X613568Y668529D01*
X615792Y668529D01*
X617846Y667678D01*
X619418Y666106D01*
X620269Y664052D01*
X620269Y661828D01*
X619418Y659774D01*
X617846Y658202D01*
X615792Y657351D01*
X613568Y657351D01*
G37*
%LPD*%
%LPC*%
G36*
X580548Y647191D02*
X580548Y647191D01*
X578494Y648042D01*
X576922Y649614D01*
X576071Y651668D01*
X576071Y653892D01*
X576922Y655946D01*
X578494Y657518D01*
X580548Y658369D01*
X582772Y658369D01*
X584826Y657518D01*
X586398Y655946D01*
X587249Y653892D01*
X587249Y651668D01*
X586398Y649614D01*
X584826Y648042D01*
X582772Y647191D01*
X580548Y647191D01*
G37*
%LPD*%
%LPC*%
G36*
X626268Y477011D02*
X626268Y477011D01*
X624214Y477862D01*
X622642Y479434D01*
X621791Y481488D01*
X621791Y483712D01*
X622642Y485766D01*
X624214Y487338D01*
X626268Y488189D01*
X628492Y488189D01*
X630546Y487338D01*
X632118Y485766D01*
X632969Y483712D01*
X632969Y481488D01*
X632118Y479434D01*
X630546Y477862D01*
X628492Y477011D01*
X626268Y477011D01*
G37*
%LPD*%
%LPC*%
G36*
X1233439Y841139D02*
X1233439Y841139D01*
X1233439Y850692D01*
X1233790Y850637D01*
X1235637Y850037D01*
X1237368Y849155D01*
X1238939Y848013D01*
X1240313Y846639D01*
X1241455Y845068D01*
X1242337Y843337D01*
X1242937Y841490D01*
X1242992Y841139D01*
X1233439Y841139D01*
G37*
%LPD*%
%LPC*%
G36*
X930639Y841139D02*
X930639Y841139D01*
X930639Y850692D01*
X930990Y850637D01*
X932837Y850037D01*
X934568Y849155D01*
X936139Y848013D01*
X937513Y846639D01*
X938655Y845068D01*
X939537Y843337D01*
X940137Y841490D01*
X940192Y841139D01*
X930639Y841139D01*
G37*
%LPD*%
%LPC*%
G36*
X1108439Y841139D02*
X1108439Y841139D01*
X1108439Y850692D01*
X1108790Y850637D01*
X1110637Y850037D01*
X1112368Y849155D01*
X1113939Y848013D01*
X1115313Y846639D01*
X1116455Y845068D01*
X1117337Y843337D01*
X1117937Y841490D01*
X1117992Y841139D01*
X1108439Y841139D01*
G37*
%LPD*%
%LPC*%
G36*
X1055639Y836061D02*
X1055639Y836061D01*
X1065192Y836061D01*
X1065137Y835710D01*
X1064537Y833863D01*
X1063655Y832132D01*
X1062513Y830561D01*
X1061139Y829187D01*
X1059568Y828045D01*
X1057837Y827163D01*
X1055990Y826563D01*
X1055639Y826508D01*
X1055639Y836061D01*
G37*
%LPD*%
%LPC*%
G36*
X1093808Y841139D02*
X1093808Y841139D01*
X1093863Y841490D01*
X1094463Y843337D01*
X1095345Y845068D01*
X1096487Y846639D01*
X1097861Y848013D01*
X1099432Y849155D01*
X1101163Y850037D01*
X1103010Y850637D01*
X1103361Y850692D01*
X1103361Y841139D01*
X1093808Y841139D01*
G37*
%LPD*%
%LPC*%
G36*
X1041008Y841139D02*
X1041008Y841139D01*
X1041063Y841490D01*
X1041663Y843337D01*
X1042545Y845068D01*
X1043687Y846639D01*
X1045061Y848013D01*
X1046632Y849155D01*
X1048363Y850037D01*
X1050210Y850637D01*
X1050561Y850692D01*
X1050561Y841139D01*
X1041008Y841139D01*
G37*
%LPD*%
%LPC*%
G36*
X1218808Y841139D02*
X1218808Y841139D01*
X1218863Y841490D01*
X1219463Y843337D01*
X1220345Y845068D01*
X1221487Y846639D01*
X1222861Y848013D01*
X1224432Y849155D01*
X1226163Y850037D01*
X1228010Y850637D01*
X1228361Y850692D01*
X1228361Y841139D01*
X1218808Y841139D01*
G37*
%LPD*%
%LPC*%
G36*
X930639Y836061D02*
X930639Y836061D01*
X940192Y836061D01*
X940137Y835710D01*
X939537Y833863D01*
X938655Y832132D01*
X937513Y830561D01*
X936139Y829187D01*
X934568Y828045D01*
X932837Y827163D01*
X930990Y826563D01*
X930639Y826508D01*
X930639Y836061D01*
G37*
%LPD*%
%LPC*%
G36*
X1233439Y836061D02*
X1233439Y836061D01*
X1242992Y836061D01*
X1242937Y835710D01*
X1242337Y833863D01*
X1241455Y832132D01*
X1240313Y830561D01*
X1238939Y829187D01*
X1237368Y828045D01*
X1235637Y827163D01*
X1233790Y826563D01*
X1233439Y826508D01*
X1233439Y836061D01*
G37*
%LPD*%
%LPC*%
G36*
X1108439Y836061D02*
X1108439Y836061D01*
X1117992Y836061D01*
X1117937Y835710D01*
X1117337Y833863D01*
X1116455Y832132D01*
X1115313Y830561D01*
X1113939Y829187D01*
X1112368Y828045D01*
X1110637Y827163D01*
X1108790Y826563D01*
X1108439Y826508D01*
X1108439Y836061D01*
G37*
%LPD*%
%LPC*%
G36*
X1228010Y826563D02*
X1228010Y826563D01*
X1226163Y827163D01*
X1224432Y828045D01*
X1222861Y829187D01*
X1221487Y830561D01*
X1220345Y832132D01*
X1219463Y833863D01*
X1218863Y835710D01*
X1218808Y836061D01*
X1228361Y836061D01*
X1228361Y826508D01*
X1228010Y826563D01*
G37*
%LPD*%
%LPC*%
G36*
X925210Y826563D02*
X925210Y826563D01*
X923363Y827163D01*
X921632Y828045D01*
X920061Y829187D01*
X918687Y830561D01*
X917545Y832132D01*
X916663Y833863D01*
X916063Y835710D01*
X916008Y836061D01*
X925561Y836061D01*
X925561Y826508D01*
X925210Y826563D01*
G37*
%LPD*%
%LPC*%
G36*
X1050210Y826563D02*
X1050210Y826563D01*
X1048363Y827163D01*
X1046632Y828045D01*
X1045061Y829187D01*
X1043687Y830561D01*
X1042545Y832132D01*
X1041663Y833863D01*
X1041063Y835710D01*
X1041008Y836061D01*
X1050561Y836061D01*
X1050561Y826508D01*
X1050210Y826563D01*
G37*
%LPD*%
%LPC*%
G36*
X1103010Y826563D02*
X1103010Y826563D01*
X1101163Y827163D01*
X1099432Y828045D01*
X1097861Y829187D01*
X1096487Y830561D01*
X1095345Y832132D01*
X1094463Y833863D01*
X1093863Y835710D01*
X1093808Y836061D01*
X1103361Y836061D01*
X1103361Y826508D01*
X1103010Y826563D01*
G37*
%LPD*%
%LPC*%
G36*
X104099Y904199D02*
X104099Y904199D01*
X104099Y910920D01*
X105262Y910542D01*
X106601Y909860D01*
X107815Y908977D01*
X108877Y907915D01*
X109760Y906701D01*
X110442Y905362D01*
X110820Y904199D01*
X104099Y904199D01*
G37*
%LPD*%
%LPC*%
G36*
X104099Y899201D02*
X104099Y899201D01*
X110820Y899201D01*
X110442Y898038D01*
X109760Y896699D01*
X108877Y895485D01*
X107815Y894423D01*
X106601Y893540D01*
X105262Y892858D01*
X104099Y892480D01*
X104099Y899201D01*
G37*
%LPD*%
%LPC*%
G36*
X92380Y904199D02*
X92380Y904199D01*
X92758Y905362D01*
X93440Y906701D01*
X94323Y907915D01*
X95385Y908977D01*
X96599Y909860D01*
X97938Y910542D01*
X99101Y910920D01*
X99101Y904199D01*
X92380Y904199D01*
G37*
%LPD*%
%LPC*%
G36*
X97938Y892858D02*
X97938Y892858D01*
X96599Y893540D01*
X95385Y894423D01*
X94323Y895485D01*
X93440Y896699D01*
X92758Y898038D01*
X92380Y899201D01*
X99101Y899201D01*
X99101Y892480D01*
X97938Y892858D01*
G37*
%LPD*%
%LPC*%
G36*
X1094499Y414899D02*
X1094499Y414899D01*
X1094499Y421299D01*
X1094820Y421236D01*
X1096454Y420559D01*
X1097925Y419576D01*
X1099176Y418325D01*
X1100159Y416854D01*
X1100836Y415220D01*
X1100899Y414899D01*
X1094499Y414899D01*
G37*
%LPD*%
%LPC*%
G36*
X1083501Y414899D02*
X1083501Y414899D01*
X1083564Y415220D01*
X1084241Y416854D01*
X1085224Y418325D01*
X1086475Y419576D01*
X1087946Y420559D01*
X1089580Y421236D01*
X1089901Y421299D01*
X1089901Y414899D01*
X1083501Y414899D01*
G37*
%LPD*%
%LPC*%
G36*
X1094499Y410301D02*
X1094499Y410301D01*
X1100899Y410301D01*
X1100836Y409980D01*
X1100159Y408346D01*
X1099176Y406875D01*
X1097925Y405624D01*
X1096454Y404641D01*
X1094820Y403964D01*
X1094499Y403901D01*
X1094499Y410301D01*
G37*
%LPD*%
%LPC*%
G36*
X1089580Y403964D02*
X1089580Y403964D01*
X1087946Y404641D01*
X1086475Y405624D01*
X1085224Y406875D01*
X1084241Y408346D01*
X1083564Y409980D01*
X1083501Y410301D01*
X1089901Y410301D01*
X1089901Y403901D01*
X1089580Y403964D01*
G37*
%LPD*%
%LPC*%
G36*
X513022Y654322D02*
X513022Y654322D01*
X513022Y660593D01*
X513356Y660527D01*
X514951Y659866D01*
X516387Y658907D01*
X517607Y657687D01*
X518566Y656251D01*
X519227Y654656D01*
X519293Y654322D01*
X513022Y654322D01*
G37*
%LPD*%
%LPC*%
G36*
X284422Y730522D02*
X284422Y730522D01*
X284422Y736793D01*
X284756Y736727D01*
X286351Y736066D01*
X287787Y735107D01*
X289007Y733887D01*
X289966Y732451D01*
X290627Y730856D01*
X290693Y730522D01*
X284422Y730522D01*
G37*
%LPD*%
%LPC*%
G36*
X538422Y730522D02*
X538422Y730522D01*
X538422Y736793D01*
X538756Y736727D01*
X540351Y736066D01*
X541787Y735107D01*
X543007Y733887D01*
X543966Y732451D01*
X544627Y730856D01*
X544693Y730522D01*
X538422Y730522D01*
G37*
%LPD*%
%LPC*%
G36*
X284422Y654322D02*
X284422Y654322D01*
X284422Y660593D01*
X284756Y660527D01*
X286351Y659866D01*
X287787Y658907D01*
X289007Y657687D01*
X289966Y656251D01*
X290627Y654656D01*
X290693Y654322D01*
X284422Y654322D01*
G37*
%LPD*%
%LPC*%
G36*
X513022Y730522D02*
X513022Y730522D01*
X513022Y736793D01*
X513356Y736727D01*
X514951Y736066D01*
X516387Y735107D01*
X517607Y733887D01*
X518566Y732451D01*
X519227Y730856D01*
X519293Y730522D01*
X513022Y730522D01*
G37*
%LPD*%
%LPC*%
G36*
X538422Y755922D02*
X538422Y755922D01*
X538422Y762193D01*
X538756Y762127D01*
X540351Y761466D01*
X541787Y760507D01*
X543007Y759287D01*
X543966Y757851D01*
X544627Y756256D01*
X544693Y755922D01*
X538422Y755922D01*
G37*
%LPD*%
%LPC*%
G36*
X527707Y730522D02*
X527707Y730522D01*
X527773Y730856D01*
X528434Y732451D01*
X529393Y733887D01*
X530613Y735107D01*
X532049Y736066D01*
X533644Y736727D01*
X533978Y736793D01*
X533978Y730522D01*
X527707Y730522D01*
G37*
%LPD*%
%LPC*%
G36*
X284422Y726078D02*
X284422Y726078D01*
X290693Y726078D01*
X290627Y725744D01*
X289966Y724149D01*
X289007Y722713D01*
X287787Y721493D01*
X286351Y720534D01*
X284756Y719873D01*
X284422Y719807D01*
X284422Y726078D01*
G37*
%LPD*%
%LPC*%
G36*
X284422Y649878D02*
X284422Y649878D01*
X290693Y649878D01*
X290627Y649544D01*
X289966Y647949D01*
X289007Y646513D01*
X287787Y645293D01*
X286351Y644334D01*
X284756Y643673D01*
X284422Y643607D01*
X284422Y649878D01*
G37*
%LPD*%
%LPC*%
G36*
X513022Y649878D02*
X513022Y649878D01*
X519293Y649878D01*
X519227Y649544D01*
X518566Y647949D01*
X517607Y646513D01*
X516387Y645293D01*
X514951Y644334D01*
X513356Y643673D01*
X513022Y643607D01*
X513022Y649878D01*
G37*
%LPD*%
%LPC*%
G36*
X527707Y755922D02*
X527707Y755922D01*
X527773Y756256D01*
X528434Y757851D01*
X529393Y759287D01*
X530613Y760507D01*
X532049Y761466D01*
X533644Y762127D01*
X533978Y762193D01*
X533978Y755922D01*
X527707Y755922D01*
G37*
%LPD*%
%LPC*%
G36*
X502307Y730522D02*
X502307Y730522D01*
X502373Y730856D01*
X503034Y732451D01*
X503993Y733887D01*
X505213Y735107D01*
X506649Y736066D01*
X508244Y736727D01*
X508578Y736793D01*
X508578Y730522D01*
X502307Y730522D01*
G37*
%LPD*%
%LPC*%
G36*
X538422Y726078D02*
X538422Y726078D01*
X544693Y726078D01*
X544627Y725744D01*
X543966Y724149D01*
X543007Y722713D01*
X541787Y721493D01*
X540351Y720534D01*
X538756Y719873D01*
X538422Y719807D01*
X538422Y726078D01*
G37*
%LPD*%
%LPC*%
G36*
X538422Y751478D02*
X538422Y751478D01*
X544693Y751478D01*
X544627Y751144D01*
X543966Y749549D01*
X543007Y748113D01*
X541787Y746893D01*
X540351Y745934D01*
X538756Y745273D01*
X538422Y745207D01*
X538422Y751478D01*
G37*
%LPD*%
%LPC*%
G36*
X513022Y726078D02*
X513022Y726078D01*
X519293Y726078D01*
X519227Y725744D01*
X518566Y724149D01*
X517607Y722713D01*
X516387Y721493D01*
X514951Y720534D01*
X513356Y719873D01*
X513022Y719807D01*
X513022Y726078D01*
G37*
%LPD*%
%LPC*%
G36*
X502307Y654322D02*
X502307Y654322D01*
X502373Y654656D01*
X503034Y656251D01*
X503993Y657687D01*
X505213Y658907D01*
X506649Y659866D01*
X508244Y660527D01*
X508578Y660593D01*
X508578Y654322D01*
X502307Y654322D01*
G37*
%LPD*%
%LPC*%
G36*
X273707Y654322D02*
X273707Y654322D01*
X273773Y654656D01*
X274434Y656251D01*
X275393Y657687D01*
X276613Y658907D01*
X278049Y659866D01*
X279644Y660527D01*
X279978Y660593D01*
X279978Y654322D01*
X273707Y654322D01*
G37*
%LPD*%
%LPC*%
G36*
X273707Y730522D02*
X273707Y730522D01*
X273773Y730856D01*
X274434Y732451D01*
X275393Y733887D01*
X276613Y735107D01*
X278049Y736066D01*
X279644Y736727D01*
X279978Y736793D01*
X279978Y730522D01*
X273707Y730522D01*
G37*
%LPD*%
%LPC*%
G36*
X508244Y719873D02*
X508244Y719873D01*
X506649Y720534D01*
X505213Y721493D01*
X503993Y722713D01*
X503034Y724149D01*
X502373Y725744D01*
X502307Y726078D01*
X508578Y726078D01*
X508578Y719807D01*
X508244Y719873D01*
G37*
%LPD*%
%LPC*%
G36*
X533644Y745273D02*
X533644Y745273D01*
X532049Y745934D01*
X530613Y746893D01*
X529393Y748113D01*
X528434Y749549D01*
X527773Y751144D01*
X527707Y751478D01*
X533978Y751478D01*
X533978Y745207D01*
X533644Y745273D01*
G37*
%LPD*%
%LPC*%
G36*
X533644Y719873D02*
X533644Y719873D01*
X532049Y720534D01*
X530613Y721493D01*
X529393Y722713D01*
X528434Y724149D01*
X527773Y725744D01*
X527707Y726078D01*
X533978Y726078D01*
X533978Y719807D01*
X533644Y719873D01*
G37*
%LPD*%
%LPC*%
G36*
X279644Y643673D02*
X279644Y643673D01*
X278049Y644334D01*
X276613Y645293D01*
X275393Y646513D01*
X274434Y647949D01*
X273773Y649544D01*
X273707Y649878D01*
X279978Y649878D01*
X279978Y643607D01*
X279644Y643673D01*
G37*
%LPD*%
%LPC*%
G36*
X279644Y719873D02*
X279644Y719873D01*
X278049Y720534D01*
X276613Y721493D01*
X275393Y722713D01*
X274434Y724149D01*
X273773Y725744D01*
X273707Y726078D01*
X279978Y726078D01*
X279978Y719807D01*
X279644Y719873D01*
G37*
%LPD*%
%LPC*%
G36*
X508244Y643673D02*
X508244Y643673D01*
X506649Y644334D01*
X505213Y645293D01*
X503993Y646513D01*
X503034Y647949D01*
X502373Y649544D01*
X502307Y649878D01*
X508578Y649878D01*
X508578Y643607D01*
X508244Y643673D01*
G37*
%LPD*%
%LPC*%
G36*
X928099Y838599D02*
X928099Y838599D01*
X928099Y838601D01*
X928101Y838601D01*
X928101Y838599D01*
X928099Y838599D01*
G37*
%LPD*%
%LPC*%
G36*
X1105899Y838599D02*
X1105899Y838599D01*
X1105899Y838601D01*
X1105901Y838601D01*
X1105901Y838599D01*
X1105899Y838599D01*
G37*
%LPD*%
%LPC*%
G36*
X1053099Y838599D02*
X1053099Y838599D01*
X1053099Y838601D01*
X1053101Y838601D01*
X1053101Y838599D01*
X1053099Y838599D01*
G37*
%LPD*%
%LPC*%
G36*
X1230899Y838599D02*
X1230899Y838599D01*
X1230899Y838601D01*
X1230901Y838601D01*
X1230901Y838599D01*
X1230899Y838599D01*
G37*
%LPD*%
D10*
X1092200Y482600D03*
X1092200Y457600D03*
X1092200Y437600D03*
X1092200Y412600D03*
D11*
X1119300Y513300D03*
X1119300Y381900D03*
D12*
X863600Y901700D03*
X863600Y876300D03*
X863600Y850900D03*
X863600Y825500D03*
X863600Y800100D03*
X863600Y774700D03*
X863600Y749300D03*
X863600Y723900D03*
X863600Y698500D03*
X863600Y673100D03*
X863600Y647700D03*
X863600Y622300D03*
X863600Y596900D03*
X863600Y571500D03*
X863600Y546100D03*
X863600Y520700D03*
X863600Y495300D03*
X863600Y469900D03*
X863600Y444500D03*
X863600Y419100D03*
X101600Y901700D03*
X101600Y876300D03*
X101600Y850900D03*
X101600Y825500D03*
X101600Y800100D03*
X101600Y774700D03*
X101600Y749300D03*
X101600Y723900D03*
X101600Y698500D03*
X101600Y673100D03*
X101600Y647700D03*
X101600Y622300D03*
X101600Y596900D03*
X101600Y571500D03*
X101600Y546100D03*
X101600Y520700D03*
X101600Y495300D03*
X101600Y469900D03*
X101600Y444500D03*
X101600Y419100D03*
D13*
X101600Y946150D03*
X101600Y374650D03*
X863600Y946150D03*
X863600Y374650D03*
D14*
X1219200Y965200D03*
X1219200Y50800D03*
X50800Y50800D03*
X50800Y965200D03*
D12*
X1067200Y584200D03*
X1092200Y584200D03*
X1117200Y584200D03*
X1067200Y228600D03*
X1092200Y228600D03*
X1117200Y228600D03*
D15*
X1053100Y888600D03*
X1053100Y838600D03*
X928100Y838600D03*
X928100Y888600D03*
X1230900Y888600D03*
X1230900Y838600D03*
X1105900Y838600D03*
X1105900Y888600D03*
D16*
X536200Y906100D03*
X510800Y906100D03*
X536200Y880700D03*
X510800Y880700D03*
X536200Y855300D03*
X510800Y855300D03*
X536200Y829900D03*
X510800Y829900D03*
X536200Y804500D03*
X510800Y804500D03*
X536200Y779100D03*
X510800Y779100D03*
X536200Y753700D03*
X510800Y753700D03*
X536200Y728300D03*
X510800Y728300D03*
X536200Y702900D03*
X510800Y702900D03*
X536200Y677500D03*
X510800Y677500D03*
X536200Y652100D03*
X510800Y652100D03*
X536200Y626700D03*
X510800Y626700D03*
X536200Y601300D03*
X510800Y601300D03*
X536200Y575900D03*
X510800Y575900D03*
X536200Y550500D03*
X510800Y550500D03*
X536200Y525100D03*
X510800Y525100D03*
X536200Y499700D03*
X510800Y499700D03*
X536200Y474300D03*
X510800Y474300D03*
X282200Y906100D03*
X256800Y906100D03*
X282200Y880700D03*
X256800Y880700D03*
X282200Y855300D03*
X256800Y855300D03*
X282200Y829900D03*
X256800Y829900D03*
X282200Y804500D03*
X256800Y804500D03*
X282200Y779100D03*
X256800Y779100D03*
X282200Y753700D03*
X256800Y753700D03*
X282200Y728300D03*
X256800Y728300D03*
X282200Y702900D03*
X256800Y702900D03*
X282200Y677500D03*
X256800Y677500D03*
X282200Y652100D03*
X256800Y652100D03*
X282200Y626700D03*
X256800Y626700D03*
X282200Y601300D03*
X256800Y601300D03*
X282200Y575900D03*
X256800Y575900D03*
X282200Y550500D03*
X256800Y550500D03*
X282200Y525100D03*
X256800Y525100D03*
X282200Y499700D03*
X256800Y499700D03*
X282200Y474300D03*
X256800Y474300D03*
D17*
X650240Y431800D03*
X650240Y431800D03*
X650240Y431800D03*
X652780Y779780D03*
X566420Y635000D03*
X566420Y635000D03*
X566420Y635000D03*
X566420Y701040D03*
X604520Y215900D03*
X604520Y215900D03*
X604520Y215900D03*
X604520Y675640D03*
X579120Y617220D03*
X579120Y617220D03*
X579120Y617220D03*
X581660Y652780D03*
X558800Y584200D03*
X558800Y584200D03*
X558800Y584200D03*
X591820Y584200D03*
X591820Y584200D03*
X591820Y584200D03*
X591820Y690880D03*
X1064260Y853440D03*
X916559Y853059D03*
X119380Y304800D03*
X195580Y304800D03*
X271780Y304800D03*
X977900Y375920D03*
X1074420Y411480D03*
X1221740Y304800D03*
X607060Y835660D03*
X607060Y835660D03*
X607060Y835660D03*
X614680Y662940D03*
X916940Y474980D03*
X617220Y624840D03*
X358140Y627380D03*
X358140Y627380D03*
X358140Y627380D03*
X358140Y754380D03*
X627380Y482600D03*
X627380Y482600D03*
X627380Y482600D03*
X602488Y864108D03*
D18*
X601980Y863600D01*
D17*
X601980Y863600D03*
X601980Y863600D03*
X599440Y716280D03*
X635000Y454660D03*
X635000Y454660D03*
X635000Y454660D03*
X636270Y806450D03*
M02*
