G04 EAGLE Gerber RS-274X export*
G75*
%MOMM*%
%FSLAX34Y34*%
%LPD*%
%INTop Copper*%
%IPPOS*%
%AMOC8*
5,1,8,0,0,1.08239X$1,22.5*%
G01*
%ADD10R,0.800000X0.800000*%
%ADD11C,1.016000*%
%ADD12R,1.288000X1.288000*%
%ADD13C,1.288000*%
%ADD14C,3.220000*%
%ADD15R,1.676400X1.676400*%
%ADD16C,1.676400*%
%ADD17C,4.016000*%
%ADD18C,4.445000*%
%ADD19C,1.400000*%
%ADD20R,1.031241X0.949959*%
%ADD21R,0.949959X1.031241*%
%ADD22C,1.960000*%
%ADD23R,1.524000X1.524000*%
%ADD24P,1.649562X8X292.500000*%
%ADD25C,0.254000*%
%ADD26C,0.609600*%
%ADD27C,0.508000*%

G36*
X1267444Y1012308D02*
X1267444Y1012308D01*
X1267437Y1012427D01*
X1267424Y1012465D01*
X1267419Y1012506D01*
X1267376Y1012616D01*
X1267339Y1012729D01*
X1267317Y1012764D01*
X1267302Y1012801D01*
X1267233Y1012897D01*
X1267169Y1012998D01*
X1267139Y1013026D01*
X1267116Y1013059D01*
X1267024Y1013135D01*
X1266937Y1013216D01*
X1266902Y1013236D01*
X1266871Y1013261D01*
X1266763Y1013312D01*
X1266659Y1013370D01*
X1266619Y1013380D01*
X1266583Y1013397D01*
X1266466Y1013419D01*
X1266351Y1013449D01*
X1266291Y1013453D01*
X1266271Y1013457D01*
X1266250Y1013455D01*
X1266190Y1013459D01*
X3810Y1013459D01*
X3692Y1013444D01*
X3573Y1013437D01*
X3535Y1013424D01*
X3494Y1013419D01*
X3384Y1013376D01*
X3271Y1013339D01*
X3236Y1013317D01*
X3199Y1013302D01*
X3103Y1013233D01*
X3002Y1013169D01*
X2974Y1013139D01*
X2941Y1013116D01*
X2865Y1013024D01*
X2784Y1012937D01*
X2764Y1012902D01*
X2739Y1012871D01*
X2688Y1012763D01*
X2630Y1012659D01*
X2620Y1012619D01*
X2603Y1012583D01*
X2581Y1012466D01*
X2551Y1012351D01*
X2547Y1012291D01*
X2543Y1012271D01*
X2545Y1012250D01*
X2541Y1012190D01*
X2541Y3810D01*
X2556Y3692D01*
X2563Y3573D01*
X2576Y3535D01*
X2581Y3494D01*
X2624Y3384D01*
X2661Y3271D01*
X2683Y3236D01*
X2698Y3199D01*
X2767Y3103D01*
X2831Y3002D01*
X2861Y2974D01*
X2884Y2941D01*
X2976Y2865D01*
X3063Y2784D01*
X3098Y2764D01*
X3129Y2739D01*
X3237Y2688D01*
X3341Y2630D01*
X3381Y2620D01*
X3417Y2603D01*
X3534Y2581D01*
X3649Y2551D01*
X3709Y2547D01*
X3729Y2543D01*
X3750Y2545D01*
X3810Y2541D01*
X1266190Y2541D01*
X1266308Y2556D01*
X1266427Y2563D01*
X1266465Y2576D01*
X1266506Y2581D01*
X1266616Y2624D01*
X1266729Y2661D01*
X1266764Y2683D01*
X1266801Y2698D01*
X1266897Y2767D01*
X1266998Y2831D01*
X1267026Y2861D01*
X1267059Y2884D01*
X1267135Y2976D01*
X1267216Y3063D01*
X1267236Y3098D01*
X1267261Y3129D01*
X1267312Y3237D01*
X1267370Y3341D01*
X1267380Y3381D01*
X1267397Y3417D01*
X1267419Y3534D01*
X1267449Y3649D01*
X1267453Y3709D01*
X1267457Y3729D01*
X1267455Y3750D01*
X1267459Y3810D01*
X1267459Y1012190D01*
X1267444Y1012308D01*
G37*
%LPC*%
G36*
X127000Y913131D02*
X127000Y913131D01*
X127118Y913146D01*
X127237Y913153D01*
X127275Y913166D01*
X127316Y913171D01*
X127426Y913214D01*
X127539Y913251D01*
X127574Y913273D01*
X127611Y913288D01*
X127707Y913358D01*
X127808Y913421D01*
X127836Y913451D01*
X127869Y913474D01*
X127945Y913566D01*
X128026Y913653D01*
X128046Y913688D01*
X128071Y913719D01*
X128122Y913827D01*
X128180Y913931D01*
X128190Y913971D01*
X128207Y914007D01*
X128229Y914124D01*
X128259Y914239D01*
X128263Y914300D01*
X128267Y914320D01*
X128265Y914340D01*
X128269Y914400D01*
X128269Y989331D01*
X811531Y989331D01*
X811531Y914400D01*
X811546Y914282D01*
X811553Y914163D01*
X811566Y914125D01*
X811571Y914084D01*
X811614Y913974D01*
X811651Y913861D01*
X811673Y913826D01*
X811688Y913789D01*
X811758Y913693D01*
X811821Y913592D01*
X811851Y913564D01*
X811874Y913531D01*
X811966Y913456D01*
X812053Y913374D01*
X812088Y913354D01*
X812119Y913329D01*
X812227Y913278D01*
X812331Y913220D01*
X812371Y913210D01*
X812407Y913193D01*
X812524Y913171D01*
X812639Y913141D01*
X812700Y913137D01*
X812720Y913133D01*
X812740Y913135D01*
X812800Y913131D01*
X914400Y913131D01*
X914518Y913146D01*
X914637Y913153D01*
X914675Y913166D01*
X914716Y913171D01*
X914826Y913214D01*
X914939Y913251D01*
X914974Y913273D01*
X915011Y913288D01*
X915107Y913358D01*
X915208Y913421D01*
X915236Y913451D01*
X915269Y913474D01*
X915345Y913566D01*
X915426Y913653D01*
X915446Y913688D01*
X915471Y913719D01*
X915522Y913827D01*
X915580Y913931D01*
X915590Y913971D01*
X915607Y914007D01*
X915629Y914124D01*
X915659Y914239D01*
X915663Y914300D01*
X915667Y914320D01*
X915665Y914340D01*
X915669Y914400D01*
X915669Y989331D01*
X1192531Y989331D01*
X1192531Y970915D01*
X1192533Y970898D01*
X1192531Y970881D01*
X1192553Y970741D01*
X1192571Y970600D01*
X1192577Y970584D01*
X1192580Y970567D01*
X1192635Y970436D01*
X1192688Y970304D01*
X1192698Y970290D01*
X1192704Y970275D01*
X1192791Y970162D01*
X1192874Y970047D01*
X1192888Y970036D01*
X1192898Y970022D01*
X1193010Y969935D01*
X1193119Y969844D01*
X1193135Y969837D01*
X1193148Y969826D01*
X1193279Y969769D01*
X1193407Y969709D01*
X1193424Y969705D01*
X1193440Y969698D01*
X1193580Y969675D01*
X1193720Y969649D01*
X1193737Y969650D01*
X1193754Y969647D01*
X1193895Y969660D01*
X1194037Y969668D01*
X1194053Y969674D01*
X1194070Y969675D01*
X1194204Y969723D01*
X1194339Y969767D01*
X1194354Y969776D01*
X1194370Y969781D01*
X1194488Y969861D01*
X1194608Y969937D01*
X1194620Y969949D01*
X1194634Y969959D01*
X1194728Y970065D01*
X1194826Y970168D01*
X1194834Y970183D01*
X1194846Y970196D01*
X1194911Y970322D01*
X1194980Y970447D01*
X1194984Y970463D01*
X1194992Y970479D01*
X1195037Y970633D01*
X1195365Y972067D01*
X1196283Y974692D01*
X1197490Y977199D01*
X1198970Y979554D01*
X1200705Y981729D01*
X1202671Y983695D01*
X1204846Y985430D01*
X1207201Y986910D01*
X1209708Y988117D01*
X1212333Y989035D01*
X1215045Y989654D01*
X1216661Y989836D01*
X1216661Y966470D01*
X1216676Y966352D01*
X1216683Y966233D01*
X1216696Y966195D01*
X1216701Y966155D01*
X1216744Y966044D01*
X1216781Y965931D01*
X1216803Y965897D01*
X1216818Y965859D01*
X1216888Y965763D01*
X1216951Y965662D01*
X1216981Y965634D01*
X1217004Y965602D01*
X1217096Y965526D01*
X1217183Y965444D01*
X1217218Y965425D01*
X1217249Y965399D01*
X1217357Y965348D01*
X1217461Y965291D01*
X1217501Y965280D01*
X1217537Y965263D01*
X1217654Y965241D01*
X1217769Y965211D01*
X1217830Y965207D01*
X1217850Y965203D01*
X1217870Y965205D01*
X1217930Y965201D01*
X1219201Y965201D01*
X1219201Y963930D01*
X1219216Y963812D01*
X1219223Y963693D01*
X1219236Y963655D01*
X1219241Y963614D01*
X1219285Y963504D01*
X1219321Y963391D01*
X1219343Y963356D01*
X1219358Y963319D01*
X1219428Y963223D01*
X1219491Y963122D01*
X1219521Y963094D01*
X1219545Y963061D01*
X1219636Y962986D01*
X1219723Y962904D01*
X1219758Y962884D01*
X1219790Y962859D01*
X1219897Y962808D01*
X1220002Y962750D01*
X1220041Y962740D01*
X1220077Y962723D01*
X1220194Y962701D01*
X1220309Y962671D01*
X1220370Y962667D01*
X1220390Y962663D01*
X1220410Y962665D01*
X1220470Y962661D01*
X1243836Y962661D01*
X1243654Y961045D01*
X1243035Y958333D01*
X1242117Y955708D01*
X1240910Y953201D01*
X1239430Y950846D01*
X1237695Y948671D01*
X1235729Y946705D01*
X1233554Y944970D01*
X1231199Y943490D01*
X1228692Y942283D01*
X1226067Y941365D01*
X1224633Y941037D01*
X1224617Y941032D01*
X1224600Y941029D01*
X1224468Y940977D01*
X1224334Y940928D01*
X1224320Y940919D01*
X1224304Y940912D01*
X1224189Y940829D01*
X1224072Y940749D01*
X1224061Y940736D01*
X1224047Y940726D01*
X1223956Y940616D01*
X1223863Y940509D01*
X1223855Y940494D01*
X1223844Y940481D01*
X1223784Y940352D01*
X1223719Y940225D01*
X1223716Y940208D01*
X1223709Y940193D01*
X1223682Y940053D01*
X1223651Y939914D01*
X1223652Y939897D01*
X1223649Y939881D01*
X1223658Y939738D01*
X1223663Y939597D01*
X1223667Y939580D01*
X1223668Y939563D01*
X1223712Y939428D01*
X1223752Y939292D01*
X1223761Y939277D01*
X1223767Y939261D01*
X1223842Y939141D01*
X1223915Y939018D01*
X1223928Y939006D01*
X1223937Y938992D01*
X1224040Y938894D01*
X1224141Y938794D01*
X1224156Y938786D01*
X1224168Y938774D01*
X1224293Y938705D01*
X1224415Y938633D01*
X1224432Y938629D01*
X1224447Y938620D01*
X1224584Y938585D01*
X1224721Y938546D01*
X1224738Y938545D01*
X1224755Y938541D01*
X1224915Y938531D01*
X1243331Y938531D01*
X1243331Y312093D01*
X1243343Y311995D01*
X1243346Y311896D01*
X1243363Y311838D01*
X1243371Y311778D01*
X1243407Y311686D01*
X1243434Y311591D01*
X1243465Y311538D01*
X1243488Y311482D01*
X1243546Y311402D01*
X1243596Y311317D01*
X1243663Y311241D01*
X1243674Y311225D01*
X1243684Y311217D01*
X1243702Y311196D01*
X1243757Y311142D01*
X1243856Y311064D01*
X1243951Y310982D01*
X1243981Y310967D01*
X1244008Y310947D01*
X1244123Y310897D01*
X1244236Y310840D01*
X1244269Y310833D01*
X1244300Y310820D01*
X1244424Y310800D01*
X1244547Y310774D01*
X1244581Y310775D01*
X1244614Y310770D01*
X1244739Y310782D01*
X1244865Y310787D01*
X1244897Y310797D01*
X1244930Y310800D01*
X1245049Y310843D01*
X1245169Y310879D01*
X1245198Y310896D01*
X1245230Y310907D01*
X1245334Y310978D01*
X1245442Y311043D01*
X1245465Y311067D01*
X1245493Y311086D01*
X1245576Y311180D01*
X1245664Y311270D01*
X1245691Y311311D01*
X1245703Y311324D01*
X1245713Y311344D01*
X1245753Y311404D01*
X1245818Y311516D01*
X1246291Y311989D01*
X1246870Y312324D01*
X1247517Y312497D01*
X1250227Y312497D01*
X1250227Y305905D01*
X1250242Y305787D01*
X1250249Y305668D01*
X1250262Y305630D01*
X1250267Y305590D01*
X1250311Y305479D01*
X1250347Y305366D01*
X1250369Y305331D01*
X1250384Y305294D01*
X1250454Y305198D01*
X1250517Y305097D01*
X1250547Y305069D01*
X1250571Y305037D01*
X1250662Y304961D01*
X1250749Y304879D01*
X1250784Y304860D01*
X1250816Y304834D01*
X1250880Y304804D01*
X1250789Y304737D01*
X1250688Y304674D01*
X1250660Y304644D01*
X1250628Y304620D01*
X1250552Y304529D01*
X1250470Y304442D01*
X1250451Y304407D01*
X1250425Y304375D01*
X1250374Y304268D01*
X1250317Y304164D01*
X1250306Y304124D01*
X1250289Y304088D01*
X1250267Y303971D01*
X1250237Y303856D01*
X1250233Y303795D01*
X1250229Y303775D01*
X1250231Y303755D01*
X1250227Y303695D01*
X1250227Y297103D01*
X1247517Y297103D01*
X1246870Y297276D01*
X1246291Y297611D01*
X1245818Y298084D01*
X1245753Y298196D01*
X1245678Y298296D01*
X1245607Y298400D01*
X1245581Y298422D01*
X1245561Y298449D01*
X1245463Y298527D01*
X1245368Y298611D01*
X1245338Y298626D01*
X1245312Y298647D01*
X1245197Y298698D01*
X1245085Y298755D01*
X1245052Y298762D01*
X1245022Y298776D01*
X1244897Y298797D01*
X1244775Y298825D01*
X1244741Y298824D01*
X1244708Y298829D01*
X1244582Y298819D01*
X1244457Y298815D01*
X1244424Y298806D01*
X1244391Y298803D01*
X1244272Y298762D01*
X1244151Y298726D01*
X1244122Y298709D01*
X1244091Y298698D01*
X1243985Y298629D01*
X1243877Y298565D01*
X1243841Y298533D01*
X1243826Y298523D01*
X1243811Y298507D01*
X1243757Y298458D01*
X1243702Y298404D01*
X1243642Y298326D01*
X1243574Y298254D01*
X1243545Y298201D01*
X1243507Y298153D01*
X1243468Y298062D01*
X1243420Y297976D01*
X1243405Y297917D01*
X1243381Y297861D01*
X1243366Y297763D01*
X1243341Y297668D01*
X1243335Y297567D01*
X1243331Y297547D01*
X1243333Y297535D01*
X1243331Y297507D01*
X1243331Y77469D01*
X1224915Y77469D01*
X1224898Y77467D01*
X1224881Y77469D01*
X1224741Y77447D01*
X1224600Y77429D01*
X1224584Y77423D01*
X1224567Y77421D01*
X1224436Y77365D01*
X1224304Y77312D01*
X1224290Y77302D01*
X1224275Y77296D01*
X1224162Y77209D01*
X1224047Y77126D01*
X1224036Y77112D01*
X1224022Y77102D01*
X1223935Y76990D01*
X1223844Y76881D01*
X1223837Y76865D01*
X1223826Y76852D01*
X1223769Y76721D01*
X1223709Y76593D01*
X1223705Y76576D01*
X1223698Y76560D01*
X1223675Y76419D01*
X1223649Y76281D01*
X1223650Y76263D01*
X1223647Y76247D01*
X1223660Y76104D01*
X1223669Y75963D01*
X1223674Y75947D01*
X1223675Y75930D01*
X1223723Y75795D01*
X1223767Y75661D01*
X1223776Y75646D01*
X1223781Y75630D01*
X1223861Y75512D01*
X1223937Y75392D01*
X1223949Y75380D01*
X1223959Y75366D01*
X1224064Y75272D01*
X1224168Y75174D01*
X1224183Y75166D01*
X1224196Y75154D01*
X1224322Y75089D01*
X1224447Y75020D01*
X1224463Y75016D01*
X1224479Y75008D01*
X1224633Y74963D01*
X1226067Y74635D01*
X1228692Y73717D01*
X1231199Y72510D01*
X1233554Y71030D01*
X1235729Y69295D01*
X1237695Y67329D01*
X1239430Y65154D01*
X1240910Y62799D01*
X1242117Y60292D01*
X1243035Y57667D01*
X1243654Y54955D01*
X1243836Y53339D01*
X1220470Y53339D01*
X1220352Y53324D01*
X1220233Y53317D01*
X1220195Y53304D01*
X1220155Y53299D01*
X1220044Y53256D01*
X1219931Y53219D01*
X1219897Y53197D01*
X1219859Y53182D01*
X1219763Y53112D01*
X1219662Y53049D01*
X1219634Y53019D01*
X1219602Y52995D01*
X1219526Y52904D01*
X1219444Y52817D01*
X1219425Y52782D01*
X1219399Y52751D01*
X1219348Y52643D01*
X1219291Y52539D01*
X1219280Y52499D01*
X1219263Y52463D01*
X1219241Y52346D01*
X1219211Y52231D01*
X1219207Y52170D01*
X1219203Y52150D01*
X1219205Y52130D01*
X1219205Y52128D01*
X1219203Y52122D01*
X1219204Y52116D01*
X1219201Y52070D01*
X1219201Y50799D01*
X1217930Y50799D01*
X1217812Y50784D01*
X1217693Y50777D01*
X1217655Y50764D01*
X1217614Y50759D01*
X1217504Y50715D01*
X1217391Y50679D01*
X1217356Y50657D01*
X1217319Y50642D01*
X1217223Y50572D01*
X1217122Y50509D01*
X1217094Y50479D01*
X1217061Y50455D01*
X1216986Y50364D01*
X1216904Y50277D01*
X1216884Y50242D01*
X1216859Y50210D01*
X1216808Y50103D01*
X1216750Y49998D01*
X1216740Y49959D01*
X1216723Y49923D01*
X1216701Y49806D01*
X1216671Y49691D01*
X1216667Y49630D01*
X1216663Y49610D01*
X1216665Y49590D01*
X1216663Y49583D01*
X1216664Y49577D01*
X1216661Y49530D01*
X1216661Y26164D01*
X1215045Y26346D01*
X1212333Y26965D01*
X1209708Y27883D01*
X1207201Y29090D01*
X1204846Y30570D01*
X1202671Y32305D01*
X1200705Y34271D01*
X1198970Y36446D01*
X1197490Y38801D01*
X1196283Y41308D01*
X1195365Y43933D01*
X1195037Y45367D01*
X1195032Y45383D01*
X1195029Y45400D01*
X1194977Y45532D01*
X1194928Y45666D01*
X1194919Y45680D01*
X1194912Y45696D01*
X1194829Y45811D01*
X1194749Y45928D01*
X1194736Y45939D01*
X1194726Y45953D01*
X1194616Y46044D01*
X1194509Y46137D01*
X1194494Y46145D01*
X1194481Y46156D01*
X1194352Y46216D01*
X1194225Y46281D01*
X1194208Y46284D01*
X1194193Y46291D01*
X1194053Y46318D01*
X1193914Y46349D01*
X1193897Y46348D01*
X1193881Y46351D01*
X1193738Y46342D01*
X1193597Y46337D01*
X1193580Y46333D01*
X1193563Y46332D01*
X1193428Y46288D01*
X1193292Y46248D01*
X1193277Y46239D01*
X1193261Y46233D01*
X1193141Y46158D01*
X1193018Y46085D01*
X1193006Y46072D01*
X1192992Y46063D01*
X1192894Y45960D01*
X1192794Y45859D01*
X1192786Y45844D01*
X1192774Y45832D01*
X1192705Y45707D01*
X1192633Y45585D01*
X1192629Y45568D01*
X1192620Y45553D01*
X1192585Y45416D01*
X1192546Y45279D01*
X1192545Y45262D01*
X1192541Y45245D01*
X1192531Y45085D01*
X1192531Y26669D01*
X77469Y26669D01*
X77469Y45085D01*
X77467Y45102D01*
X77469Y45119D01*
X77447Y45259D01*
X77429Y45400D01*
X77423Y45416D01*
X77421Y45433D01*
X77365Y45564D01*
X77312Y45696D01*
X77302Y45710D01*
X77296Y45725D01*
X77209Y45838D01*
X77126Y45953D01*
X77112Y45964D01*
X77102Y45978D01*
X76990Y46065D01*
X76881Y46156D01*
X76865Y46163D01*
X76852Y46174D01*
X76721Y46231D01*
X76593Y46291D01*
X76576Y46295D01*
X76560Y46302D01*
X76419Y46325D01*
X76281Y46351D01*
X76263Y46350D01*
X76247Y46353D01*
X76104Y46340D01*
X75963Y46331D01*
X75947Y46326D01*
X75930Y46325D01*
X75795Y46277D01*
X75661Y46233D01*
X75646Y46224D01*
X75630Y46219D01*
X75512Y46139D01*
X75392Y46063D01*
X75380Y46051D01*
X75366Y46041D01*
X75272Y45936D01*
X75174Y45832D01*
X75166Y45817D01*
X75154Y45804D01*
X75089Y45678D01*
X75020Y45553D01*
X75016Y45537D01*
X75008Y45521D01*
X74963Y45367D01*
X74635Y43933D01*
X73717Y41308D01*
X72510Y38801D01*
X71030Y36446D01*
X69295Y34271D01*
X67329Y32305D01*
X65154Y30570D01*
X62799Y29090D01*
X60292Y27883D01*
X57667Y26965D01*
X54955Y26346D01*
X53339Y26164D01*
X53339Y49530D01*
X53324Y49648D01*
X53317Y49767D01*
X53304Y49805D01*
X53299Y49845D01*
X53256Y49956D01*
X53219Y50069D01*
X53197Y50103D01*
X53182Y50141D01*
X53112Y50237D01*
X53049Y50338D01*
X53019Y50366D01*
X52995Y50398D01*
X52904Y50474D01*
X52817Y50556D01*
X52782Y50575D01*
X52751Y50601D01*
X52643Y50652D01*
X52539Y50709D01*
X52499Y50720D01*
X52463Y50737D01*
X52346Y50759D01*
X52231Y50789D01*
X52170Y50793D01*
X52150Y50797D01*
X52130Y50795D01*
X52070Y50799D01*
X50799Y50799D01*
X50799Y52070D01*
X50784Y52188D01*
X50777Y52307D01*
X50764Y52345D01*
X50759Y52385D01*
X50715Y52496D01*
X50679Y52609D01*
X50657Y52644D01*
X50642Y52681D01*
X50572Y52777D01*
X50509Y52878D01*
X50479Y52906D01*
X50455Y52939D01*
X50364Y53014D01*
X50277Y53096D01*
X50242Y53116D01*
X50210Y53141D01*
X50103Y53192D01*
X49998Y53250D01*
X49959Y53260D01*
X49923Y53277D01*
X49806Y53299D01*
X49691Y53329D01*
X49630Y53333D01*
X49610Y53337D01*
X49590Y53335D01*
X49530Y53339D01*
X26164Y53339D01*
X26346Y54955D01*
X26965Y57667D01*
X27883Y60292D01*
X29090Y62799D01*
X30570Y65154D01*
X32305Y67329D01*
X34271Y69295D01*
X36446Y71030D01*
X38801Y72510D01*
X41308Y73717D01*
X43933Y74635D01*
X45367Y74963D01*
X45383Y74968D01*
X45400Y74971D01*
X45532Y75023D01*
X45666Y75072D01*
X45680Y75081D01*
X45696Y75088D01*
X45811Y75171D01*
X45928Y75252D01*
X45939Y75264D01*
X45953Y75274D01*
X46044Y75384D01*
X46137Y75491D01*
X46145Y75506D01*
X46156Y75519D01*
X46216Y75648D01*
X46280Y75775D01*
X46284Y75792D01*
X46291Y75807D01*
X46318Y75946D01*
X46349Y76086D01*
X46348Y76103D01*
X46351Y76120D01*
X46342Y76261D01*
X46337Y76403D01*
X46333Y76420D01*
X46331Y76437D01*
X46288Y76572D01*
X46248Y76708D01*
X46239Y76723D01*
X46233Y76739D01*
X46158Y76859D01*
X46085Y76982D01*
X46072Y76994D01*
X46063Y77008D01*
X45960Y77106D01*
X45859Y77206D01*
X45844Y77214D01*
X45832Y77226D01*
X45708Y77294D01*
X45585Y77367D01*
X45568Y77371D01*
X45553Y77380D01*
X45416Y77415D01*
X45279Y77454D01*
X45262Y77455D01*
X45245Y77459D01*
X45085Y77469D01*
X26669Y77469D01*
X26669Y913131D01*
X127000Y913131D01*
G37*
%LPD*%
%LPC*%
G36*
X97100Y923529D02*
X97100Y923529D01*
X88786Y926973D01*
X82423Y933336D01*
X78979Y941650D01*
X78979Y950650D01*
X82423Y958964D01*
X88786Y965327D01*
X97100Y968771D01*
X106100Y968771D01*
X114414Y965327D01*
X120777Y958964D01*
X124221Y950650D01*
X124221Y941650D01*
X120777Y933336D01*
X114414Y926973D01*
X106100Y923529D01*
X97100Y923529D01*
G37*
%LPD*%
%LPC*%
G36*
X859100Y923529D02*
X859100Y923529D01*
X850786Y926973D01*
X844423Y933336D01*
X840979Y941650D01*
X840979Y950650D01*
X844423Y958964D01*
X850786Y965327D01*
X859100Y968771D01*
X868100Y968771D01*
X876414Y965327D01*
X882777Y958964D01*
X886221Y950650D01*
X886221Y941650D01*
X882777Y933336D01*
X876414Y926973D01*
X868100Y923529D01*
X859100Y923529D01*
G37*
%LPD*%
%LPC*%
G36*
X53339Y967739D02*
X53339Y967739D01*
X53339Y989836D01*
X54955Y989654D01*
X57667Y989035D01*
X60292Y988117D01*
X62799Y986910D01*
X65154Y985430D01*
X67329Y983695D01*
X69295Y981729D01*
X71030Y979554D01*
X72510Y977199D01*
X73717Y974692D01*
X74635Y972067D01*
X75254Y969355D01*
X75436Y967739D01*
X53339Y967739D01*
G37*
%LPD*%
%LPC*%
G36*
X1221739Y967739D02*
X1221739Y967739D01*
X1221739Y989836D01*
X1223355Y989654D01*
X1226067Y989035D01*
X1228692Y988117D01*
X1231199Y986910D01*
X1233554Y985430D01*
X1235729Y983695D01*
X1237695Y981729D01*
X1239430Y979554D01*
X1240910Y977199D01*
X1242117Y974692D01*
X1243035Y972067D01*
X1243654Y969355D01*
X1243836Y967739D01*
X1221739Y967739D01*
G37*
%LPD*%
%LPC*%
G36*
X26164Y967739D02*
X26164Y967739D01*
X26346Y969355D01*
X26965Y972067D01*
X27883Y974692D01*
X29090Y977199D01*
X30570Y979554D01*
X32305Y981729D01*
X34271Y983695D01*
X36446Y985430D01*
X38801Y986910D01*
X41308Y988117D01*
X43933Y989035D01*
X46645Y989654D01*
X48261Y989836D01*
X48261Y967739D01*
X26164Y967739D01*
G37*
%LPD*%
%LPC*%
G36*
X1221739Y48261D02*
X1221739Y48261D01*
X1243836Y48261D01*
X1243654Y46645D01*
X1243035Y43933D01*
X1242117Y41308D01*
X1240910Y38801D01*
X1239430Y36446D01*
X1237695Y34271D01*
X1235729Y32305D01*
X1233554Y30570D01*
X1231199Y29090D01*
X1228692Y27883D01*
X1226067Y26965D01*
X1223355Y26346D01*
X1221739Y26164D01*
X1221739Y48261D01*
G37*
%LPD*%
%LPC*%
G36*
X53339Y962661D02*
X53339Y962661D01*
X75436Y962661D01*
X75254Y961045D01*
X74635Y958333D01*
X73717Y955708D01*
X72510Y953201D01*
X71030Y950846D01*
X69295Y948671D01*
X67329Y946705D01*
X65154Y944970D01*
X62799Y943490D01*
X60292Y942283D01*
X57667Y941365D01*
X54955Y940746D01*
X53339Y940564D01*
X53339Y962661D01*
G37*
%LPD*%
%LPC*%
G36*
X46645Y940746D02*
X46645Y940746D01*
X43933Y941365D01*
X41308Y942283D01*
X38801Y943490D01*
X36446Y944970D01*
X34271Y946705D01*
X32305Y948671D01*
X30570Y950846D01*
X29090Y953201D01*
X27883Y955708D01*
X26965Y958333D01*
X26346Y961045D01*
X26164Y962661D01*
X48261Y962661D01*
X48261Y940564D01*
X46645Y940746D01*
G37*
%LPD*%
%LPC*%
G36*
X46645Y26346D02*
X46645Y26346D01*
X43933Y26965D01*
X41308Y27883D01*
X38801Y29090D01*
X36446Y30570D01*
X34271Y32305D01*
X32305Y34271D01*
X30570Y36446D01*
X29090Y38801D01*
X27883Y41308D01*
X26965Y43933D01*
X26346Y46645D01*
X26164Y48261D01*
X48261Y48261D01*
X48261Y26164D01*
X46645Y26346D01*
G37*
%LPD*%
%LPC*%
G36*
X1254975Y307174D02*
X1254975Y307174D01*
X1254975Y312497D01*
X1257685Y312497D01*
X1258332Y312324D01*
X1258911Y311989D01*
X1259384Y311516D01*
X1259718Y310937D01*
X1259892Y310291D01*
X1259892Y307174D01*
X1254975Y307174D01*
G37*
%LPD*%
%LPC*%
G36*
X1254975Y297103D02*
X1254975Y297103D01*
X1254975Y302426D01*
X1259891Y302426D01*
X1259892Y299309D01*
X1259718Y298663D01*
X1259384Y298084D01*
X1258911Y297611D01*
X1258332Y297276D01*
X1257685Y297103D01*
X1254975Y297103D01*
G37*
%LPD*%
%LPC*%
G36*
X50799Y965199D02*
X50799Y965199D01*
X50799Y965201D01*
X50801Y965201D01*
X50801Y965199D01*
X50799Y965199D01*
G37*
%LPD*%
D10*
X246500Y304800D03*
X261500Y304800D03*
X170300Y304800D03*
X185300Y304800D03*
X94100Y304800D03*
X109100Y304800D03*
D11*
X1168400Y965200D03*
X1168400Y50800D03*
X101600Y50800D03*
D12*
X1092200Y482600D03*
D13*
X1092200Y457600D03*
X1092200Y437600D03*
X1092200Y412600D03*
D14*
X1119300Y513300D03*
X1119300Y381900D03*
D15*
X863600Y901700D03*
D16*
X863600Y876300D03*
X863600Y850900D03*
X863600Y825500D03*
X863600Y800100D03*
X863600Y774700D03*
X863600Y749300D03*
X863600Y723900D03*
X863600Y698500D03*
X863600Y673100D03*
X863600Y647700D03*
X863600Y622300D03*
X863600Y596900D03*
X863600Y571500D03*
X863600Y546100D03*
X863600Y520700D03*
X863600Y495300D03*
X863600Y469900D03*
X863600Y444500D03*
X863600Y419100D03*
D15*
X101600Y901700D03*
D16*
X101600Y876300D03*
X101600Y850900D03*
X101600Y825500D03*
X101600Y800100D03*
X101600Y774700D03*
X101600Y749300D03*
X101600Y723900D03*
X101600Y698500D03*
X101600Y673100D03*
X101600Y647700D03*
X101600Y622300D03*
X101600Y596900D03*
X101600Y571500D03*
X101600Y546100D03*
X101600Y520700D03*
X101600Y495300D03*
X101600Y469900D03*
X101600Y444500D03*
X101600Y419100D03*
D17*
X101600Y946150D03*
X101600Y374650D03*
X863600Y946150D03*
X863600Y374650D03*
D18*
X1219200Y965200D03*
X1219200Y50800D03*
X50800Y50800D03*
X50800Y965200D03*
D19*
X1067200Y584200D03*
X1092200Y584200D03*
X1117200Y584200D03*
X1067200Y228600D03*
X1092200Y228600D03*
X1117200Y228600D03*
D20*
X904240Y869061D03*
X904240Y853059D03*
X1079500Y869061D03*
X1079500Y853059D03*
D21*
X1236599Y304800D03*
X1252601Y304800D03*
D22*
X1053100Y888600D03*
X1053100Y838600D03*
X928100Y838600D03*
X928100Y888600D03*
X1230900Y888600D03*
X1230900Y838600D03*
X1105900Y838600D03*
X1105900Y888600D03*
D23*
X536200Y906100D03*
D24*
X510800Y906100D03*
X536200Y880700D03*
X510800Y880700D03*
X536200Y855300D03*
X510800Y855300D03*
X536200Y829900D03*
X510800Y829900D03*
X536200Y804500D03*
X510800Y804500D03*
X536200Y779100D03*
X510800Y779100D03*
X536200Y753700D03*
X510800Y753700D03*
X536200Y728300D03*
X510800Y728300D03*
X536200Y702900D03*
X510800Y702900D03*
X536200Y677500D03*
X510800Y677500D03*
X536200Y652100D03*
X510800Y652100D03*
X536200Y626700D03*
X510800Y626700D03*
X536200Y601300D03*
X510800Y601300D03*
X536200Y575900D03*
X510800Y575900D03*
X536200Y550500D03*
X510800Y550500D03*
X536200Y525100D03*
X510800Y525100D03*
X536200Y499700D03*
X510800Y499700D03*
X536200Y474300D03*
X510800Y474300D03*
D23*
X282200Y906100D03*
D24*
X256800Y906100D03*
X282200Y880700D03*
X256800Y880700D03*
X282200Y855300D03*
X256800Y855300D03*
X282200Y829900D03*
X256800Y829900D03*
X282200Y804500D03*
X256800Y804500D03*
X282200Y779100D03*
X256800Y779100D03*
X282200Y753700D03*
X256800Y753700D03*
X282200Y728300D03*
X256800Y728300D03*
X282200Y702900D03*
X256800Y702900D03*
X282200Y677500D03*
X256800Y677500D03*
X282200Y652100D03*
X256800Y652100D03*
X282200Y626700D03*
X256800Y626700D03*
X282200Y601300D03*
X256800Y601300D03*
X282200Y575900D03*
X256800Y575900D03*
X282200Y550500D03*
X256800Y550500D03*
X282200Y525100D03*
X256800Y525100D03*
X282200Y499700D03*
X256800Y499700D03*
X282200Y474300D03*
X256800Y474300D03*
D25*
X245036Y825500D02*
X101600Y825500D01*
X245036Y825500D02*
X252066Y818470D01*
X499370Y818470D01*
X510800Y829900D01*
X245036Y800100D02*
X101600Y800100D01*
X245036Y800100D02*
X252066Y793070D01*
X499370Y793070D01*
X510800Y804500D01*
X245036Y774700D02*
X101600Y774700D01*
X245036Y774700D02*
X252066Y767670D01*
X499370Y767670D01*
X510800Y779100D01*
X96550Y837692D02*
X89408Y830550D01*
X286935Y843870D02*
X291425Y848360D01*
X513080Y848360D01*
X196170Y843870D02*
X189992Y837692D01*
X96550Y837692D01*
X196170Y843870D02*
X286935Y843870D01*
X101600Y757458D02*
X101600Y749300D01*
X101600Y757458D02*
X89408Y769650D01*
X89408Y830550D01*
X513080Y848360D02*
X513080Y853020D01*
X510800Y855300D01*
X500380Y868680D02*
X246380Y868680D01*
X84328Y850870D02*
X84328Y749330D01*
X84328Y850870D02*
X96550Y863092D01*
X240792Y863092D02*
X246380Y868680D01*
X240792Y863092D02*
X96550Y863092D01*
X101600Y732058D02*
X101600Y723900D01*
X101600Y732058D02*
X84328Y749330D01*
X500380Y868680D02*
X510800Y879100D01*
X510800Y880700D01*
X510800Y906100D02*
X309200Y906100D01*
X295230Y892130D01*
X252066Y892130D02*
X248428Y888492D01*
X96550Y888492D01*
X79248Y871190D02*
X79248Y729010D01*
X79248Y871190D02*
X96550Y888492D01*
X252066Y892130D02*
X295230Y892130D01*
X101600Y706658D02*
X101600Y698500D01*
X101600Y706658D02*
X79248Y729010D01*
X873942Y437600D02*
X1092200Y437600D01*
X868142Y431800D02*
X650240Y431800D01*
X868142Y431800D02*
X873942Y437600D01*
D26*
X650240Y431800D03*
X650240Y431800D03*
X650240Y431800D03*
X652780Y779780D03*
D25*
X536880Y779780D01*
X536200Y779100D01*
X1066400Y635000D02*
X1117200Y584200D01*
X1066400Y635000D02*
X566420Y635000D01*
D26*
X566420Y635000D03*
X566420Y635000D03*
X566420Y635000D03*
X566420Y701040D03*
D25*
X538060Y701040D01*
X536200Y702900D01*
X1082488Y228600D02*
X1092200Y228600D01*
X1082488Y228600D02*
X1071678Y217790D01*
X606410Y217790D02*
X604520Y215900D01*
X606410Y217790D02*
X1071678Y217790D01*
D26*
X604520Y215900D03*
X604520Y215900D03*
X604520Y215900D03*
X604520Y675640D03*
D25*
X538060Y675640D01*
X536200Y677500D01*
X851438Y617220D02*
X858550Y610108D01*
X851438Y617220D02*
X579120Y617220D01*
X858550Y610108D02*
X1066292Y610108D01*
D26*
X579120Y617220D03*
X579120Y617220D03*
X579120Y617220D03*
X581660Y652780D03*
D25*
X580980Y652100D01*
X536200Y652100D01*
X1066292Y610108D02*
X1092200Y584200D01*
X558800Y584200D02*
X558800Y581660D01*
D26*
X558800Y584200D03*
X558800Y584200D03*
X558800Y584200D03*
D25*
X591820Y584200D02*
X1067200Y584200D01*
D26*
X591820Y584200D03*
X591820Y584200D03*
X591820Y584200D03*
X591820Y690880D03*
D25*
X522820Y690880D01*
X510800Y702900D01*
X1067181Y853059D02*
X1079500Y853059D01*
X1067181Y853059D02*
X1066800Y853440D01*
X1064260Y853440D01*
D26*
X1064260Y853440D03*
D25*
X916559Y853059D02*
X904240Y853059D01*
X916559Y853059D02*
X916940Y853440D01*
D26*
X916559Y853059D03*
D25*
X119380Y304800D02*
X109100Y304800D01*
D26*
X119380Y304800D03*
D25*
X185300Y304800D02*
X195580Y304800D01*
D26*
X195580Y304800D03*
D25*
X261500Y304800D02*
X271780Y304800D01*
D26*
X271780Y304800D03*
X977900Y375920D03*
D25*
X1075540Y412600D02*
X1092200Y412600D01*
X1075540Y412600D02*
X1074420Y411480D01*
D26*
X1074420Y411480D03*
D25*
X1221740Y304800D02*
X1236599Y304800D01*
D26*
X1221740Y304800D03*
D25*
X1230900Y888600D02*
X1105900Y888600D01*
X1086361Y869061D01*
X1079500Y869061D01*
X933738Y824990D02*
X917015Y824990D01*
X977809Y869061D02*
X1079500Y869061D01*
X917015Y824990D02*
X904313Y837692D01*
X609092Y837692D01*
X607060Y835660D01*
X933738Y824990D02*
X977809Y869061D01*
D26*
X607060Y835660D03*
X607060Y835660D03*
X607060Y835660D03*
X614680Y662940D03*
D25*
X541525Y662940D01*
X540935Y663530D01*
X296170Y663530D02*
X282200Y677500D01*
X296170Y663530D02*
X540935Y663530D01*
D26*
X916940Y474980D03*
D25*
X875762Y474980D01*
D26*
X617220Y624840D03*
D25*
X550505Y624840D01*
X540935Y615270D01*
X522230Y615270D01*
X510800Y626700D01*
X358820Y626700D01*
X358140Y627380D01*
D26*
X358140Y627380D03*
X358140Y627380D03*
X358140Y627380D03*
X358140Y754380D03*
D25*
X357460Y753700D01*
X282200Y753700D01*
X627380Y482600D02*
X868142Y482600D01*
D26*
X627380Y482600D03*
X627380Y482600D03*
X627380Y482600D03*
D25*
X868142Y482600D02*
X875762Y474980D01*
X928100Y888600D02*
X1053100Y888600D01*
X928100Y888600D02*
X923779Y888600D01*
X904240Y869061D01*
X873603Y869061D01*
X868650Y864108D01*
X602488Y864108D01*
D26*
X602488Y864108D03*
X601980Y863600D03*
X601980Y863600D03*
X599440Y716280D03*
D25*
X506066Y714330D02*
X499370Y707635D01*
X499370Y698166D01*
X597490Y714330D02*
X599440Y716280D01*
X510800Y686736D02*
X499370Y698166D01*
X510800Y686736D02*
X510800Y677500D01*
X506066Y714330D02*
X597490Y714330D01*
X246500Y468436D02*
X246500Y304800D01*
X246500Y468436D02*
X245370Y469566D01*
X245370Y615270D01*
X256800Y626700D01*
X183000Y317500D02*
X170300Y304800D01*
X248920Y634985D02*
X248920Y650240D01*
X240290Y467461D02*
X240846Y466906D01*
X240290Y467461D02*
X240290Y626355D01*
X248920Y634985D01*
X248920Y650240D02*
X250780Y652100D01*
X256800Y652100D01*
X236220Y317500D02*
X183000Y317500D01*
X241300Y466451D02*
X240846Y466906D01*
X241300Y322580D02*
X236220Y317500D01*
X241300Y322580D02*
X241300Y466451D01*
X114420Y325120D02*
X94100Y304800D01*
X236220Y464347D02*
X235210Y465357D01*
X243840Y637089D02*
X243840Y695960D01*
X235210Y628459D02*
X235210Y465357D01*
X235210Y628459D02*
X243840Y637089D01*
X243840Y695960D02*
X250780Y702900D01*
X256800Y702900D01*
X236220Y325120D02*
X114420Y325120D01*
X236220Y325120D02*
X236220Y464347D01*
X637940Y457600D02*
X1092200Y457600D01*
X637940Y457600D02*
X635000Y454660D01*
D26*
X635000Y454660D03*
X635000Y454660D03*
X635000Y454660D03*
X636270Y806450D03*
D25*
X538150Y806450D01*
X536200Y804500D01*
D27*
X1119300Y381900D02*
X1122740Y378460D01*
X1257300Y378460D01*
X1257080Y513300D02*
X1119300Y513300D01*
X1257080Y513300D02*
X1257300Y513080D01*
M02*
