G04 EAGLE Gerber RS-274X export*
G75*
%MOMM*%
%FSLAX34Y34*%
%LPD*%
%INSoldermask Top*%
%IPPOS*%
%AMOC8*
5,1,8,0,0,1.08239X$1,22.5*%
G01*
%ADD10R,0.952400X0.952400*%
%ADD11C,0.609600*%
%ADD12C,1.168400*%
%ADD13R,1.440400X1.440400*%
%ADD14C,1.440400*%
%ADD15C,3.372400*%
%ADD16R,1.828800X1.828800*%
%ADD17C,1.828800*%
%ADD18C,4.168400*%
%ADD19C,4.597400*%
%ADD20C,1.552400*%
%ADD21C,2.652400*%
%ADD22R,1.183641X1.102359*%
%ADD23R,1.102359X1.183641*%
%ADD24C,2.112400*%
%ADD25R,1.676400X1.676400*%
%ADD26P,1.814519X8X292.500000*%


D10*
X246500Y304800D03*
X261500Y304800D03*
X170300Y304800D03*
X185300Y304800D03*
X94100Y304800D03*
X109100Y304800D03*
D11*
X1160780Y965200D02*
X1160782Y965387D01*
X1160789Y965574D01*
X1160801Y965761D01*
X1160817Y965947D01*
X1160837Y966133D01*
X1160862Y966318D01*
X1160892Y966503D01*
X1160926Y966687D01*
X1160965Y966870D01*
X1161008Y967052D01*
X1161056Y967232D01*
X1161108Y967412D01*
X1161165Y967590D01*
X1161225Y967767D01*
X1161291Y967942D01*
X1161360Y968116D01*
X1161434Y968288D01*
X1161512Y968458D01*
X1161594Y968626D01*
X1161680Y968792D01*
X1161770Y968956D01*
X1161864Y969117D01*
X1161962Y969277D01*
X1162064Y969433D01*
X1162170Y969588D01*
X1162280Y969739D01*
X1162393Y969888D01*
X1162510Y970034D01*
X1162630Y970177D01*
X1162754Y970317D01*
X1162881Y970454D01*
X1163012Y970588D01*
X1163146Y970719D01*
X1163283Y970846D01*
X1163423Y970970D01*
X1163566Y971090D01*
X1163712Y971207D01*
X1163861Y971320D01*
X1164012Y971430D01*
X1164167Y971536D01*
X1164323Y971638D01*
X1164483Y971736D01*
X1164644Y971830D01*
X1164808Y971920D01*
X1164974Y972006D01*
X1165142Y972088D01*
X1165312Y972166D01*
X1165484Y972240D01*
X1165658Y972309D01*
X1165833Y972375D01*
X1166010Y972435D01*
X1166188Y972492D01*
X1166368Y972544D01*
X1166548Y972592D01*
X1166730Y972635D01*
X1166913Y972674D01*
X1167097Y972708D01*
X1167282Y972738D01*
X1167467Y972763D01*
X1167653Y972783D01*
X1167839Y972799D01*
X1168026Y972811D01*
X1168213Y972818D01*
X1168400Y972820D01*
X1168587Y972818D01*
X1168774Y972811D01*
X1168961Y972799D01*
X1169147Y972783D01*
X1169333Y972763D01*
X1169518Y972738D01*
X1169703Y972708D01*
X1169887Y972674D01*
X1170070Y972635D01*
X1170252Y972592D01*
X1170432Y972544D01*
X1170612Y972492D01*
X1170790Y972435D01*
X1170967Y972375D01*
X1171142Y972309D01*
X1171316Y972240D01*
X1171488Y972166D01*
X1171658Y972088D01*
X1171826Y972006D01*
X1171992Y971920D01*
X1172156Y971830D01*
X1172317Y971736D01*
X1172477Y971638D01*
X1172633Y971536D01*
X1172788Y971430D01*
X1172939Y971320D01*
X1173088Y971207D01*
X1173234Y971090D01*
X1173377Y970970D01*
X1173517Y970846D01*
X1173654Y970719D01*
X1173788Y970588D01*
X1173919Y970454D01*
X1174046Y970317D01*
X1174170Y970177D01*
X1174290Y970034D01*
X1174407Y969888D01*
X1174520Y969739D01*
X1174630Y969588D01*
X1174736Y969433D01*
X1174838Y969277D01*
X1174936Y969117D01*
X1175030Y968956D01*
X1175120Y968792D01*
X1175206Y968626D01*
X1175288Y968458D01*
X1175366Y968288D01*
X1175440Y968116D01*
X1175509Y967942D01*
X1175575Y967767D01*
X1175635Y967590D01*
X1175692Y967412D01*
X1175744Y967232D01*
X1175792Y967052D01*
X1175835Y966870D01*
X1175874Y966687D01*
X1175908Y966503D01*
X1175938Y966318D01*
X1175963Y966133D01*
X1175983Y965947D01*
X1175999Y965761D01*
X1176011Y965574D01*
X1176018Y965387D01*
X1176020Y965200D01*
X1176018Y965013D01*
X1176011Y964826D01*
X1175999Y964639D01*
X1175983Y964453D01*
X1175963Y964267D01*
X1175938Y964082D01*
X1175908Y963897D01*
X1175874Y963713D01*
X1175835Y963530D01*
X1175792Y963348D01*
X1175744Y963168D01*
X1175692Y962988D01*
X1175635Y962810D01*
X1175575Y962633D01*
X1175509Y962458D01*
X1175440Y962284D01*
X1175366Y962112D01*
X1175288Y961942D01*
X1175206Y961774D01*
X1175120Y961608D01*
X1175030Y961444D01*
X1174936Y961283D01*
X1174838Y961123D01*
X1174736Y960967D01*
X1174630Y960812D01*
X1174520Y960661D01*
X1174407Y960512D01*
X1174290Y960366D01*
X1174170Y960223D01*
X1174046Y960083D01*
X1173919Y959946D01*
X1173788Y959812D01*
X1173654Y959681D01*
X1173517Y959554D01*
X1173377Y959430D01*
X1173234Y959310D01*
X1173088Y959193D01*
X1172939Y959080D01*
X1172788Y958970D01*
X1172633Y958864D01*
X1172477Y958762D01*
X1172317Y958664D01*
X1172156Y958570D01*
X1171992Y958480D01*
X1171826Y958394D01*
X1171658Y958312D01*
X1171488Y958234D01*
X1171316Y958160D01*
X1171142Y958091D01*
X1170967Y958025D01*
X1170790Y957965D01*
X1170612Y957908D01*
X1170432Y957856D01*
X1170252Y957808D01*
X1170070Y957765D01*
X1169887Y957726D01*
X1169703Y957692D01*
X1169518Y957662D01*
X1169333Y957637D01*
X1169147Y957617D01*
X1168961Y957601D01*
X1168774Y957589D01*
X1168587Y957582D01*
X1168400Y957580D01*
X1168213Y957582D01*
X1168026Y957589D01*
X1167839Y957601D01*
X1167653Y957617D01*
X1167467Y957637D01*
X1167282Y957662D01*
X1167097Y957692D01*
X1166913Y957726D01*
X1166730Y957765D01*
X1166548Y957808D01*
X1166368Y957856D01*
X1166188Y957908D01*
X1166010Y957965D01*
X1165833Y958025D01*
X1165658Y958091D01*
X1165484Y958160D01*
X1165312Y958234D01*
X1165142Y958312D01*
X1164974Y958394D01*
X1164808Y958480D01*
X1164644Y958570D01*
X1164483Y958664D01*
X1164323Y958762D01*
X1164167Y958864D01*
X1164012Y958970D01*
X1163861Y959080D01*
X1163712Y959193D01*
X1163566Y959310D01*
X1163423Y959430D01*
X1163283Y959554D01*
X1163146Y959681D01*
X1163012Y959812D01*
X1162881Y959946D01*
X1162754Y960083D01*
X1162630Y960223D01*
X1162510Y960366D01*
X1162393Y960512D01*
X1162280Y960661D01*
X1162170Y960812D01*
X1162064Y960967D01*
X1161962Y961123D01*
X1161864Y961283D01*
X1161770Y961444D01*
X1161680Y961608D01*
X1161594Y961774D01*
X1161512Y961942D01*
X1161434Y962112D01*
X1161360Y962284D01*
X1161291Y962458D01*
X1161225Y962633D01*
X1161165Y962810D01*
X1161108Y962988D01*
X1161056Y963168D01*
X1161008Y963348D01*
X1160965Y963530D01*
X1160926Y963713D01*
X1160892Y963897D01*
X1160862Y964082D01*
X1160837Y964267D01*
X1160817Y964453D01*
X1160801Y964639D01*
X1160789Y964826D01*
X1160782Y965013D01*
X1160780Y965200D01*
D12*
X1168400Y965200D03*
D11*
X1160780Y50800D02*
X1160782Y50987D01*
X1160789Y51174D01*
X1160801Y51361D01*
X1160817Y51547D01*
X1160837Y51733D01*
X1160862Y51918D01*
X1160892Y52103D01*
X1160926Y52287D01*
X1160965Y52470D01*
X1161008Y52652D01*
X1161056Y52832D01*
X1161108Y53012D01*
X1161165Y53190D01*
X1161225Y53367D01*
X1161291Y53542D01*
X1161360Y53716D01*
X1161434Y53888D01*
X1161512Y54058D01*
X1161594Y54226D01*
X1161680Y54392D01*
X1161770Y54556D01*
X1161864Y54717D01*
X1161962Y54877D01*
X1162064Y55033D01*
X1162170Y55188D01*
X1162280Y55339D01*
X1162393Y55488D01*
X1162510Y55634D01*
X1162630Y55777D01*
X1162754Y55917D01*
X1162881Y56054D01*
X1163012Y56188D01*
X1163146Y56319D01*
X1163283Y56446D01*
X1163423Y56570D01*
X1163566Y56690D01*
X1163712Y56807D01*
X1163861Y56920D01*
X1164012Y57030D01*
X1164167Y57136D01*
X1164323Y57238D01*
X1164483Y57336D01*
X1164644Y57430D01*
X1164808Y57520D01*
X1164974Y57606D01*
X1165142Y57688D01*
X1165312Y57766D01*
X1165484Y57840D01*
X1165658Y57909D01*
X1165833Y57975D01*
X1166010Y58035D01*
X1166188Y58092D01*
X1166368Y58144D01*
X1166548Y58192D01*
X1166730Y58235D01*
X1166913Y58274D01*
X1167097Y58308D01*
X1167282Y58338D01*
X1167467Y58363D01*
X1167653Y58383D01*
X1167839Y58399D01*
X1168026Y58411D01*
X1168213Y58418D01*
X1168400Y58420D01*
X1168587Y58418D01*
X1168774Y58411D01*
X1168961Y58399D01*
X1169147Y58383D01*
X1169333Y58363D01*
X1169518Y58338D01*
X1169703Y58308D01*
X1169887Y58274D01*
X1170070Y58235D01*
X1170252Y58192D01*
X1170432Y58144D01*
X1170612Y58092D01*
X1170790Y58035D01*
X1170967Y57975D01*
X1171142Y57909D01*
X1171316Y57840D01*
X1171488Y57766D01*
X1171658Y57688D01*
X1171826Y57606D01*
X1171992Y57520D01*
X1172156Y57430D01*
X1172317Y57336D01*
X1172477Y57238D01*
X1172633Y57136D01*
X1172788Y57030D01*
X1172939Y56920D01*
X1173088Y56807D01*
X1173234Y56690D01*
X1173377Y56570D01*
X1173517Y56446D01*
X1173654Y56319D01*
X1173788Y56188D01*
X1173919Y56054D01*
X1174046Y55917D01*
X1174170Y55777D01*
X1174290Y55634D01*
X1174407Y55488D01*
X1174520Y55339D01*
X1174630Y55188D01*
X1174736Y55033D01*
X1174838Y54877D01*
X1174936Y54717D01*
X1175030Y54556D01*
X1175120Y54392D01*
X1175206Y54226D01*
X1175288Y54058D01*
X1175366Y53888D01*
X1175440Y53716D01*
X1175509Y53542D01*
X1175575Y53367D01*
X1175635Y53190D01*
X1175692Y53012D01*
X1175744Y52832D01*
X1175792Y52652D01*
X1175835Y52470D01*
X1175874Y52287D01*
X1175908Y52103D01*
X1175938Y51918D01*
X1175963Y51733D01*
X1175983Y51547D01*
X1175999Y51361D01*
X1176011Y51174D01*
X1176018Y50987D01*
X1176020Y50800D01*
X1176018Y50613D01*
X1176011Y50426D01*
X1175999Y50239D01*
X1175983Y50053D01*
X1175963Y49867D01*
X1175938Y49682D01*
X1175908Y49497D01*
X1175874Y49313D01*
X1175835Y49130D01*
X1175792Y48948D01*
X1175744Y48768D01*
X1175692Y48588D01*
X1175635Y48410D01*
X1175575Y48233D01*
X1175509Y48058D01*
X1175440Y47884D01*
X1175366Y47712D01*
X1175288Y47542D01*
X1175206Y47374D01*
X1175120Y47208D01*
X1175030Y47044D01*
X1174936Y46883D01*
X1174838Y46723D01*
X1174736Y46567D01*
X1174630Y46412D01*
X1174520Y46261D01*
X1174407Y46112D01*
X1174290Y45966D01*
X1174170Y45823D01*
X1174046Y45683D01*
X1173919Y45546D01*
X1173788Y45412D01*
X1173654Y45281D01*
X1173517Y45154D01*
X1173377Y45030D01*
X1173234Y44910D01*
X1173088Y44793D01*
X1172939Y44680D01*
X1172788Y44570D01*
X1172633Y44464D01*
X1172477Y44362D01*
X1172317Y44264D01*
X1172156Y44170D01*
X1171992Y44080D01*
X1171826Y43994D01*
X1171658Y43912D01*
X1171488Y43834D01*
X1171316Y43760D01*
X1171142Y43691D01*
X1170967Y43625D01*
X1170790Y43565D01*
X1170612Y43508D01*
X1170432Y43456D01*
X1170252Y43408D01*
X1170070Y43365D01*
X1169887Y43326D01*
X1169703Y43292D01*
X1169518Y43262D01*
X1169333Y43237D01*
X1169147Y43217D01*
X1168961Y43201D01*
X1168774Y43189D01*
X1168587Y43182D01*
X1168400Y43180D01*
X1168213Y43182D01*
X1168026Y43189D01*
X1167839Y43201D01*
X1167653Y43217D01*
X1167467Y43237D01*
X1167282Y43262D01*
X1167097Y43292D01*
X1166913Y43326D01*
X1166730Y43365D01*
X1166548Y43408D01*
X1166368Y43456D01*
X1166188Y43508D01*
X1166010Y43565D01*
X1165833Y43625D01*
X1165658Y43691D01*
X1165484Y43760D01*
X1165312Y43834D01*
X1165142Y43912D01*
X1164974Y43994D01*
X1164808Y44080D01*
X1164644Y44170D01*
X1164483Y44264D01*
X1164323Y44362D01*
X1164167Y44464D01*
X1164012Y44570D01*
X1163861Y44680D01*
X1163712Y44793D01*
X1163566Y44910D01*
X1163423Y45030D01*
X1163283Y45154D01*
X1163146Y45281D01*
X1163012Y45412D01*
X1162881Y45546D01*
X1162754Y45683D01*
X1162630Y45823D01*
X1162510Y45966D01*
X1162393Y46112D01*
X1162280Y46261D01*
X1162170Y46412D01*
X1162064Y46567D01*
X1161962Y46723D01*
X1161864Y46883D01*
X1161770Y47044D01*
X1161680Y47208D01*
X1161594Y47374D01*
X1161512Y47542D01*
X1161434Y47712D01*
X1161360Y47884D01*
X1161291Y48058D01*
X1161225Y48233D01*
X1161165Y48410D01*
X1161108Y48588D01*
X1161056Y48768D01*
X1161008Y48948D01*
X1160965Y49130D01*
X1160926Y49313D01*
X1160892Y49497D01*
X1160862Y49682D01*
X1160837Y49867D01*
X1160817Y50053D01*
X1160801Y50239D01*
X1160789Y50426D01*
X1160782Y50613D01*
X1160780Y50800D01*
D12*
X1168400Y50800D03*
D11*
X93980Y50800D02*
X93982Y50987D01*
X93989Y51174D01*
X94001Y51361D01*
X94017Y51547D01*
X94037Y51733D01*
X94062Y51918D01*
X94092Y52103D01*
X94126Y52287D01*
X94165Y52470D01*
X94208Y52652D01*
X94256Y52832D01*
X94308Y53012D01*
X94365Y53190D01*
X94425Y53367D01*
X94491Y53542D01*
X94560Y53716D01*
X94634Y53888D01*
X94712Y54058D01*
X94794Y54226D01*
X94880Y54392D01*
X94970Y54556D01*
X95064Y54717D01*
X95162Y54877D01*
X95264Y55033D01*
X95370Y55188D01*
X95480Y55339D01*
X95593Y55488D01*
X95710Y55634D01*
X95830Y55777D01*
X95954Y55917D01*
X96081Y56054D01*
X96212Y56188D01*
X96346Y56319D01*
X96483Y56446D01*
X96623Y56570D01*
X96766Y56690D01*
X96912Y56807D01*
X97061Y56920D01*
X97212Y57030D01*
X97367Y57136D01*
X97523Y57238D01*
X97683Y57336D01*
X97844Y57430D01*
X98008Y57520D01*
X98174Y57606D01*
X98342Y57688D01*
X98512Y57766D01*
X98684Y57840D01*
X98858Y57909D01*
X99033Y57975D01*
X99210Y58035D01*
X99388Y58092D01*
X99568Y58144D01*
X99748Y58192D01*
X99930Y58235D01*
X100113Y58274D01*
X100297Y58308D01*
X100482Y58338D01*
X100667Y58363D01*
X100853Y58383D01*
X101039Y58399D01*
X101226Y58411D01*
X101413Y58418D01*
X101600Y58420D01*
X101787Y58418D01*
X101974Y58411D01*
X102161Y58399D01*
X102347Y58383D01*
X102533Y58363D01*
X102718Y58338D01*
X102903Y58308D01*
X103087Y58274D01*
X103270Y58235D01*
X103452Y58192D01*
X103632Y58144D01*
X103812Y58092D01*
X103990Y58035D01*
X104167Y57975D01*
X104342Y57909D01*
X104516Y57840D01*
X104688Y57766D01*
X104858Y57688D01*
X105026Y57606D01*
X105192Y57520D01*
X105356Y57430D01*
X105517Y57336D01*
X105677Y57238D01*
X105833Y57136D01*
X105988Y57030D01*
X106139Y56920D01*
X106288Y56807D01*
X106434Y56690D01*
X106577Y56570D01*
X106717Y56446D01*
X106854Y56319D01*
X106988Y56188D01*
X107119Y56054D01*
X107246Y55917D01*
X107370Y55777D01*
X107490Y55634D01*
X107607Y55488D01*
X107720Y55339D01*
X107830Y55188D01*
X107936Y55033D01*
X108038Y54877D01*
X108136Y54717D01*
X108230Y54556D01*
X108320Y54392D01*
X108406Y54226D01*
X108488Y54058D01*
X108566Y53888D01*
X108640Y53716D01*
X108709Y53542D01*
X108775Y53367D01*
X108835Y53190D01*
X108892Y53012D01*
X108944Y52832D01*
X108992Y52652D01*
X109035Y52470D01*
X109074Y52287D01*
X109108Y52103D01*
X109138Y51918D01*
X109163Y51733D01*
X109183Y51547D01*
X109199Y51361D01*
X109211Y51174D01*
X109218Y50987D01*
X109220Y50800D01*
X109218Y50613D01*
X109211Y50426D01*
X109199Y50239D01*
X109183Y50053D01*
X109163Y49867D01*
X109138Y49682D01*
X109108Y49497D01*
X109074Y49313D01*
X109035Y49130D01*
X108992Y48948D01*
X108944Y48768D01*
X108892Y48588D01*
X108835Y48410D01*
X108775Y48233D01*
X108709Y48058D01*
X108640Y47884D01*
X108566Y47712D01*
X108488Y47542D01*
X108406Y47374D01*
X108320Y47208D01*
X108230Y47044D01*
X108136Y46883D01*
X108038Y46723D01*
X107936Y46567D01*
X107830Y46412D01*
X107720Y46261D01*
X107607Y46112D01*
X107490Y45966D01*
X107370Y45823D01*
X107246Y45683D01*
X107119Y45546D01*
X106988Y45412D01*
X106854Y45281D01*
X106717Y45154D01*
X106577Y45030D01*
X106434Y44910D01*
X106288Y44793D01*
X106139Y44680D01*
X105988Y44570D01*
X105833Y44464D01*
X105677Y44362D01*
X105517Y44264D01*
X105356Y44170D01*
X105192Y44080D01*
X105026Y43994D01*
X104858Y43912D01*
X104688Y43834D01*
X104516Y43760D01*
X104342Y43691D01*
X104167Y43625D01*
X103990Y43565D01*
X103812Y43508D01*
X103632Y43456D01*
X103452Y43408D01*
X103270Y43365D01*
X103087Y43326D01*
X102903Y43292D01*
X102718Y43262D01*
X102533Y43237D01*
X102347Y43217D01*
X102161Y43201D01*
X101974Y43189D01*
X101787Y43182D01*
X101600Y43180D01*
X101413Y43182D01*
X101226Y43189D01*
X101039Y43201D01*
X100853Y43217D01*
X100667Y43237D01*
X100482Y43262D01*
X100297Y43292D01*
X100113Y43326D01*
X99930Y43365D01*
X99748Y43408D01*
X99568Y43456D01*
X99388Y43508D01*
X99210Y43565D01*
X99033Y43625D01*
X98858Y43691D01*
X98684Y43760D01*
X98512Y43834D01*
X98342Y43912D01*
X98174Y43994D01*
X98008Y44080D01*
X97844Y44170D01*
X97683Y44264D01*
X97523Y44362D01*
X97367Y44464D01*
X97212Y44570D01*
X97061Y44680D01*
X96912Y44793D01*
X96766Y44910D01*
X96623Y45030D01*
X96483Y45154D01*
X96346Y45281D01*
X96212Y45412D01*
X96081Y45546D01*
X95954Y45683D01*
X95830Y45823D01*
X95710Y45966D01*
X95593Y46112D01*
X95480Y46261D01*
X95370Y46412D01*
X95264Y46567D01*
X95162Y46723D01*
X95064Y46883D01*
X94970Y47044D01*
X94880Y47208D01*
X94794Y47374D01*
X94712Y47542D01*
X94634Y47712D01*
X94560Y47884D01*
X94491Y48058D01*
X94425Y48233D01*
X94365Y48410D01*
X94308Y48588D01*
X94256Y48768D01*
X94208Y48948D01*
X94165Y49130D01*
X94126Y49313D01*
X94092Y49497D01*
X94062Y49682D01*
X94037Y49867D01*
X94017Y50053D01*
X94001Y50239D01*
X93989Y50426D01*
X93982Y50613D01*
X93980Y50800D01*
D12*
X101600Y50800D03*
D13*
X1092200Y482600D03*
D14*
X1092200Y457600D03*
X1092200Y437600D03*
X1092200Y412600D03*
D15*
X1119300Y513300D03*
X1119300Y381900D03*
D16*
X863600Y901700D03*
D17*
X863600Y876300D03*
X863600Y850900D03*
X863600Y825500D03*
X863600Y800100D03*
X863600Y774700D03*
X863600Y749300D03*
X863600Y723900D03*
X863600Y698500D03*
X863600Y673100D03*
X863600Y647700D03*
X863600Y622300D03*
X863600Y596900D03*
X863600Y571500D03*
X863600Y546100D03*
X863600Y520700D03*
X863600Y495300D03*
X863600Y469900D03*
X863600Y444500D03*
X863600Y419100D03*
D16*
X101600Y901700D03*
D17*
X101600Y876300D03*
X101600Y850900D03*
X101600Y825500D03*
X101600Y800100D03*
X101600Y774700D03*
X101600Y749300D03*
X101600Y723900D03*
X101600Y698500D03*
X101600Y673100D03*
X101600Y647700D03*
X101600Y622300D03*
X101600Y596900D03*
X101600Y571500D03*
X101600Y546100D03*
X101600Y520700D03*
X101600Y495300D03*
X101600Y469900D03*
X101600Y444500D03*
X101600Y419100D03*
D18*
X101600Y946150D03*
X101600Y374650D03*
X863600Y946150D03*
X863600Y374650D03*
D19*
X1219200Y965200D03*
X1219200Y50800D03*
X50800Y50800D03*
X50800Y965200D03*
D20*
X1067200Y584200D03*
X1092200Y584200D03*
X1117200Y584200D03*
D21*
X1042200Y654200D03*
X1142200Y654200D03*
D20*
X1067200Y228600D03*
X1092200Y228600D03*
X1117200Y228600D03*
D21*
X1042200Y298600D03*
X1142200Y298600D03*
D22*
X904240Y869061D03*
X904240Y853059D03*
X1079500Y869061D03*
X1079500Y853059D03*
D23*
X1236599Y304800D03*
X1252601Y304800D03*
D24*
X1053100Y888600D03*
X1053100Y838600D03*
X928100Y838600D03*
X928100Y888600D03*
X1230900Y888600D03*
X1230900Y838600D03*
X1105900Y838600D03*
X1105900Y888600D03*
D25*
X536200Y906100D03*
D26*
X510800Y906100D03*
X536200Y880700D03*
X510800Y880700D03*
X536200Y855300D03*
X510800Y855300D03*
X536200Y829900D03*
X510800Y829900D03*
X536200Y804500D03*
X510800Y804500D03*
X536200Y779100D03*
X510800Y779100D03*
X536200Y753700D03*
X510800Y753700D03*
X536200Y728300D03*
X510800Y728300D03*
X536200Y702900D03*
X510800Y702900D03*
X536200Y677500D03*
X510800Y677500D03*
X536200Y652100D03*
X510800Y652100D03*
X536200Y626700D03*
X510800Y626700D03*
X536200Y601300D03*
X510800Y601300D03*
X536200Y575900D03*
X510800Y575900D03*
X536200Y550500D03*
X510800Y550500D03*
X536200Y525100D03*
X510800Y525100D03*
X536200Y499700D03*
X510800Y499700D03*
X536200Y474300D03*
X510800Y474300D03*
D25*
X282200Y906100D03*
D26*
X256800Y906100D03*
X282200Y880700D03*
X256800Y880700D03*
X282200Y855300D03*
X256800Y855300D03*
X282200Y829900D03*
X256800Y829900D03*
X282200Y804500D03*
X256800Y804500D03*
X282200Y779100D03*
X256800Y779100D03*
X282200Y753700D03*
X256800Y753700D03*
X282200Y728300D03*
X256800Y728300D03*
X282200Y702900D03*
X256800Y702900D03*
X282200Y677500D03*
X256800Y677500D03*
X282200Y652100D03*
X256800Y652100D03*
X282200Y626700D03*
X256800Y626700D03*
X282200Y601300D03*
X256800Y601300D03*
X282200Y575900D03*
X256800Y575900D03*
X282200Y550500D03*
X256800Y550500D03*
X282200Y525100D03*
X256800Y525100D03*
X282200Y499700D03*
X256800Y499700D03*
X282200Y474300D03*
X256800Y474300D03*
M02*
