M48
;GenerationSoftware,Autodesk,EAGLE,9.6.2*%
;CreationDate,2022-12-15T22:45:52Z*%
FMAT,2
ICI,OFF
METRIC,TZ,000.000
T9C0.305
T8C0.889
T7C0.920
T6C1.000
T5C1.400
T4C2.300
T3C2.500
T2C3.000
T1C3.175
%
G90
M71
T1
X5080Y96520
X5080Y5080
X121920Y5080
X121920Y96520
T2
X10160Y94615
X86360Y37465
X86360Y94615
X10160Y37465
T3
X114220Y29860
X104220Y29860
X114220Y65420
X104220Y65420
T4
X111930Y38190
X111930Y51330
T5
X110590Y88860
X110590Y83860
X123090Y83860
X123090Y88860
X92810Y88860
X92810Y83860
X105310Y83860
X105310Y88860
T6
X106720Y58420
X10160Y41910
X10160Y44450
X10160Y46990
X10160Y52070
X10160Y54610
X10160Y57150
X10160Y59690
X10160Y62230
X10160Y64770
X10160Y67310
X10160Y69850
X10160Y72390
X10160Y74930
X10160Y77470
X10160Y80010
X10160Y82550
X10160Y85090
X10160Y87630
X10160Y90170
X86360Y41910
X86360Y44450
X86360Y46990
X86360Y49530
X86360Y52070
X86360Y54610
X86360Y57150
X86360Y59690
X86360Y62230
X86360Y64770
X109220Y58420
X111720Y58420
X106720Y22860
X109220Y22860
X86360Y67310
X86360Y69850
X86360Y72390
X86360Y74930
X111720Y22860
X10160Y49530
X86360Y90170
X86360Y87630
X86360Y85090
X86360Y82550
X86360Y80010
X86360Y77470
T7
X109220Y41260
X109220Y43760
X109220Y45760
X109220Y48260
T8
X25680Y47430
X53620Y77910
X28220Y47430
X25680Y49970
X28220Y49970
X25680Y52510
X28220Y52510
X25680Y55050
X28220Y55050
X25680Y57590
X28220Y57590
X25680Y60130
X28220Y60130
X25680Y62670
X28220Y62670
X25680Y65210
X28220Y65210
X25680Y67750
X28220Y67750
X25680Y70290
X28220Y70290
X25680Y72830
X28220Y72830
X25680Y75370
X28220Y75370
X25680Y77910
X28220Y77910
X25680Y80450
X28220Y80450
X25680Y82990
X28220Y82990
X25680Y85530
X28220Y85530
X25680Y88070
X28220Y88070
X25680Y90610
X28220Y90610
X51080Y47430
X53620Y47430
X51080Y49970
X53620Y49970
X51080Y52510
X53620Y52510
X51080Y55050
X53620Y55050
X51080Y57590
X53620Y57590
X51080Y60130
X53620Y60130
X51080Y62670
X53620Y62670
X51080Y65210
X53620Y90610
X51080Y90610
X53620Y88070
X51080Y88070
X53620Y85530
X51080Y85530
X53620Y82990
X51080Y82990
X53620Y80450
X51080Y80450
X53620Y65210
X51080Y77910
X53620Y75370
X51080Y75370
X53620Y72830
X51080Y72830
X53620Y70290
X51080Y70290
X53620Y67750
X51080Y67750
T9
X63500Y45466
X65024Y43180
X65024Y43180
X65278Y77978
X56642Y63500
X56642Y63500
X56642Y63500
X56642Y70104
X60452Y21590
X60452Y21590
X60452Y21590
X60452Y67564
X57912Y61722
X57912Y61722
X57912Y61722
X58166Y65278
X55880Y58420
X55880Y58420
X55880Y58420
X59182Y58420
X59182Y58420
X59182Y58420
X59182Y69088
X106426Y85344
X91656Y85306
X11938Y30480
X63627Y80645
X19558Y30480
X27178Y30480
X97790Y37592
X107442Y41148
X122174Y30480
X60706Y83566
X60706Y83566
X60706Y83566
X61468Y66294
X91694Y47498
X61722Y62484
X35814Y62738
X35814Y62738
X35814Y62738
X35814Y75438
X62738Y48260
X62738Y48260
X62738Y48260
X60249Y86411
X60198Y86360
X60198Y86360
X59944Y71628
X63500Y45466
X63500Y45466
X65024Y43180
M30